<?xml version="1.0" standalone="no"?>
<!DOCTYPE svg PUBLIC "-//W3C//DTD SVG 1.1//EN" "http://www.w3.org/Graphics/SVG/1.1/DTD/svg11.dtd" >
<svg xmlns="http://www.w3.org/2000/svg">
<metadata>
This is a custom SVG webfont generated by Font Squirrel.
Copyright   : Copyright  VOLVO 1997
Foundry     :  VOLVO
</metadata>
<defs>
<font id="VolvoBroadRegular" horiz-adv-x="729" >
<font-face units-per-em="2048" ascent="1638" descent="-410" />
<missing-glyph horiz-adv-x="387" />
<glyph unicode=" "  horiz-adv-x="387" />
<glyph unicode="&#x09;" horiz-adv-x="387" />
<glyph unicode="&#xa0;" horiz-adv-x="387" />
<glyph unicode="!" horiz-adv-x="352" d="M57 1280q-2 86 64 86h108q39 0 52.5 -18.5t13.5 -69.5l-8 -840q0 -49 -13.5 -66.5t-48.5 -17.5h-86q-37 0 -51 17.5t-16 66.5zM61 92v58q0 53 11.5 72.5t52.5 19.5h106q41 0 52.5 -19.5t11.5 -72.5v-58q0 -53 -11.5 -72.5t-52.5 -19.5h-106q-41 0 -52.5 19.5t-11.5 72.5z " />
<glyph unicode="&#x22;" horiz-adv-x="512" d="M14 1309q-6 57 39 57h129q23 0 35 -16.5t8 -40.5l-41 -275q-4 -29 -13 -36t-32 -7h-41q-23 0 -32 8.5t-13 34.5zM287 1309q-4 25 8 41t35 16h129q45 0 39 -57l-39 -275q-4 -27 -13.5 -35t-31.5 -8h-41q-23 0 -32 7.5t-13 35.5z" />
<glyph unicode="#" horiz-adv-x="1306" d="M0 457l18 59q10 31 20.5 41t35.5 10h245l74 234h-233q-53 0 -37 51l18 59q10 31 20.5 42.5t35.5 11.5h249l119 370q8 23 21.5 30t44.5 7h61q59 0 43 -53l-112 -354h239l119 370q8 23 21.5 30t44.5 7h63q57 0 41 -53l-113 -354h232q51 0 37 -52l-19 -61q-8 -29 -19.5 -40 t-35.5 -11h-246l-76 -234h236q53 0 37 -51l-19 -59q-10 -31 -20 -42.5t-35 -11.5h-250l-117 -366q-8 -23 -22 -30t-45 -7h-62q-59 0 -43 51l113 352h-240l-116 -366q-8 -23 -22.5 -30t-45.5 -7h-61q-59 0 -43 51l112 352h-231q-55 1 -37 54zM496 567h239l76 234h-242z" />
<glyph unicode="$" horiz-adv-x="604" d="M20 1081q0 117 48.5 169.5t150.5 58.5v102q0 39 29 39h94q16 0 22.5 -6t6.5 -27v-108h98q53 0 53 -68v-82q0 -39 -13 -55.5t-46 -16.5h-166q-45 0 -56.5 -34.5t13.5 -75.5l203 -373q72 -131 93 -201.5t21 -148.5q0 -201 -200 -201v-108q0 -27 -5.5 -35t-21.5 -8h-98 q-16 0 -21.5 7t-5.5 32v112h-131q-37 0 -49 15.5t-12 62.5v66q0 49 11 63t48 14h195q39 0 48 32t-10 61l-210 401q-89 168 -89 313z" />
<glyph unicode="%" horiz-adv-x="1136" d="M12 1020q0 201 48.5 282.5t195.5 81.5t195.5 -81.5t48.5 -282.5q0 -215 -53.5 -301t-190.5 -86t-190.5 87t-53.5 300zM197 1010q0 -154 9 -188t52 -34q41 0 49 34t8 188q0 147 -8 181t-49 34q-43 0 -52 -36t-9 -179zM292 6q-7 10 3 37l403 1292q6 20 14.5 26.5t30.5 6.5 h62q16 0 24.5 -2t14.5 -11t-2 -28l-412 -1300q-10 -31 -35 -31h-67q-29 0 -36 10zM637 360q0 201 48 283t195.5 82t195.5 -82t48 -283q0 -213 -53 -300t-190.5 -87t-190.5 86t-53 301zM821 350q0 -154 9.5 -187.5t52.5 -33.5q41 0 49 34t8 187q0 147 -8 181t-49 34 q-43 0 -52.5 -36t-9.5 -179z" />
<glyph unicode="&#x26;" horiz-adv-x="806" d="M35 422q0 160 27.5 223.5t97.5 81.5q-59 23 -87 90.5t-28 245.5q0 104 19.5 169.5t60.5 92.5t76 34t94 7h303q72 0 72 -68v-108q0 -66 -80 -66h-232q-80 0 -79 -69v-142q0 -80 83 -79h91v38q0 63 61 64h117q63 0 63 -62v-43h39q39 0 51.5 -13t12.5 -48v-117 q0 -66 -60 -65h-43v-207q0 -125 -9 -191.5t-45 -116.5t-101.5 -67.5t-180.5 -17.5q-201 0 -262 95t-61 339zM279 319q0 -88 86 -88q51 0 69.5 21.5t18.5 71.5v268h-115q-59 0 -59 -70v-203z" />
<glyph unicode="'" horiz-adv-x="237" d="M14 1309q-6 57 39 57h129q20 0 32.5 -16.5t8.5 -40.5l-41 -275q-4 -29 -12 -36t-33 -7h-41q-23 0 -32 8.5t-13 34.5z" />
<glyph unicode="(" horiz-adv-x="331" d="M39 663.5q0 319.5 90 747.5q10 41 22.5 53.5t45.5 12.5h59q33 0 41 -10.5t2 -53.5q-47 -344 -47 -749.5t47 -749.5q6 -43 -2 -53.5t-41 -10.5h-59q-33 0 -45.5 12.5t-22.5 53.5q-90 428 -90 747.5z" />
<glyph unicode=")" horiz-adv-x="331" d="M33 -86q47 344 47 749.5t-47 749.5q-6 43 2 53.5t41 10.5h59q33 0 45.5 -12.5t22.5 -53.5q90 -428 90 -747.5t-90 -747.5q-10 -41 -22.5 -53.5t-45.5 -12.5h-59q-33 0 -41 10.5t-2 53.5z" />
<glyph unicode="*" horiz-adv-x="430" d="M6 1241l14 25q16 25 46 6l116 -80l-10 139q-2 39 29 39h26q31 0 29 -41l-8 -137l114 78q29 20 48 -6l14 -23q18 -27 -23 -45l-120 -59l122 -60q39 -18 21 -45l-14 -22q-14 -29 -50 -4l-112 73l8 -139q2 -35 -27 -35h-28q-31 0 -29 35l10 139l-116 -78q-29 -18 -43 7 l-15 24q-16 29 15 43l127 62l-127 63q-31 16 -17 41z" />
<glyph unicode="+" horiz-adv-x="880" d="M14 653v105q0 47 13.5 64.5t50.5 17.5h229v223q0 35 15.5 50t62.5 15h104q47 0 64.5 -13t17.5 -50v-225h232q37 0 50 -17.5t13 -64.5v-105q0 -47 -15 -62.5t-50 -15.5h-230v-235q0 -37 -17 -50.5t-65 -13.5h-104q-47 0 -62.5 15.5t-15.5 50.5v233h-227q-35 0 -50.5 15.5 t-15.5 62.5z" />
<glyph unicode="," horiz-adv-x="286" d="M23 51v99q0 53 11 72.5t52 19.5h115q41 0 52 -19.5t11 -72.5v-64q0 -39 -22 -98l-39 -105q-14 -41 -43 -41h-99q-35 0 -20 35l37 88q14 35 -10 35h-13q-32 0 -32 51z" />
<glyph unicode="-" horiz-adv-x="432" d="M20 672v102q0 51 13.5 67.5t52.5 16.5h260q39 0 52.5 -16.5t13.5 -67.5v-102q0 -51 -13.5 -67.5t-52.5 -16.5h-260q-39 0 -52.5 16.5t-13.5 67.5z" />
<glyph unicode="." horiz-adv-x="286" d="M23 92v58q0 53 11 72.5t52 19.5h115q41 0 52 -19.5t11 -72.5v-58q0 -53 -11 -72.5t-52 -19.5h-115q-41 0 -52 19.5t-11 72.5z" />
<glyph unicode="/" horiz-adv-x="393" d="M14 10l213 1350q6 43 39 43h92q29 0 21 -51l-213 -1350q-6 -43 -39 -43h-92q-29 0 -21 51z" />
<glyph unicode="0" horiz-adv-x="712" d="M35 682q0 154 4 252t17.5 183t34 130t58 78t86 44t122 11t121.5 -11t86 -44t58.5 -78t34 -130t17.5 -183t4 -252q0 -184 -7 -295t-24.5 -198t-55.5 -128t-92.5 -60t-142.5 -19t-142 19t-92 60t-55.5 128t-24.5 198t-7 295zM274 682q0 -166 2.5 -245t12.5 -128t23.5 -58 t44 -9t44 9t23.5 58t12 128t2 245q0 168 -2 247t-12 128t-23.5 58t-44 9t-44 -9t-23.5 -58t-12.5 -128t-2.5 -247z" />
<glyph unicode="1" horiz-adv-x="411" d="M23 1204v70q0 59 15 75.5t68 16.5h175q41 0 54 -17.5t13 -72.5v-1188q0 -55 -13 -71.5t-59 -16.5h-102q-41 0 -54.5 17.5t-13.5 70.5v993q0 27 -5 35t-19 8h-14q-29 0 -37 14.5t-8 65.5z" />
<glyph unicode="2" horiz-adv-x="585" d="M8 88v121q0 109 37 186l211 418q53 111 53 195q0 117 -78 116h-116q-51 0 -64.5 14.5t-13.5 69.5v74q0 51 14.5 67.5t54.5 16.5h242q123 0 164 -84q39 -78 39 -274q0 -133 -64 -260l-231 -465q-23 -41 14 -41h236q37 0 51 -15.5t14 -62.5v-80q0 -49 -15 -66.5t-58 -17.5 h-422q-41 0 -54.5 17.5t-13.5 70.5z" />
<glyph unicode="3" horiz-adv-x="577" d="M6 84v70q0 51 13.5 69.5t54.5 18.5h162q47 0 62 29.5t15 131.5q0 152 -65 152h-111q-37 0 -49 16.5t-12 69.5v80q0 61 37 88l147 113q41 31 51.5 80t-9 85.5t-54.5 36.5h-166q-41 0 -54.5 15.5t-13.5 62.5v74q0 53 13.5 71.5t54.5 18.5h237q121 0 174.5 -70.5 t53.5 -265.5q0 -219 -121 -276q53 -43 80 -82q51 -80 51 -279q0 -217 -57.5 -305t-198.5 -88h-227q-43 0 -55.5 15.5t-12.5 68.5z" />
<glyph unicode="4" horiz-adv-x="722" d="M12 428v125q0 57 127 383q125 319 170 393q20 37 82 37h160q68 0 67 -88v-649q0 -41 29 -41h25q25 0 34 -15.5t9 -58.5v-100q0 -66 -39 -66h-29q-18 0 -24.5 -10t-6.5 -39v-217q0 -49 -13 -65.5t-54 -16.5h-109q-41 0 -53 15.5t-12 66.5v221q0 29 -7.5 37t-37.5 8h-252 q-66 0 -66 80zM256 637q-14 -49 12 -49h78q29 0 29 51v281q0 25 -13 24q-10 0 -14 -14z" />
<glyph unicode="5" horiz-adv-x="581" d="M14 88v70q0 53 13.5 68.5t56.5 15.5h160q76 0 75 186q0 102 -17 145t-58 43h-140q-43 0 -57 13.5t-14 48.5v594q0 53 14 73.5t53 20.5h383q39 0 53.5 -19.5t14.5 -68.5v-70q0 -47 -14.5 -65.5t-49.5 -18.5h-182q-18 0 -24.5 -8t-6.5 -35v-186q0 -37 27 -37h41 q106 0 158 -72q39 -55 54 -131.5t15 -232.5q0 -225 -56 -323.5t-179 -98.5h-250q-45 0 -57.5 15.5t-12.5 72.5z" />
<glyph unicode="6" horiz-adv-x="671" d="M20 504q0 225 25 346t113 260l139 223q18 33 47 33h205q35 0 35 -29q0 -14 -15 -39l-235 -391q39 16 94 17q113 0 166 -66q57 -72 57 -379q0 -279 -47 -383q-27 -57 -86 -81.5t-170 -24.5q-135 0 -189.5 21.5t-90.5 80.5q-48 78 -48 412zM264 336q0 -57 15.5 -75.5 t60.5 -18.5q39 0 53.5 19.5t14.5 72.5v260q0 49 -13.5 63.5t-60.5 14.5q-41 0 -55.5 -16.5t-14.5 -69.5v-250z" />
<glyph unicode="7" horiz-adv-x="589" d="M10 1210v72q0 51 13.5 67.5t56.5 16.5h434q37 0 51.5 -19.5t14.5 -66.5v-158q0 -51 -15 -112l-231 -947q-8 -35 -21.5 -49t-44.5 -14h-137q-49 0 -49 49q0 8 8 49l240 936q12 53 12 68q0 23 -27 22h-231q-47 0 -60.5 15.5t-13.5 70.5z" />
<glyph unicode="8" horiz-adv-x="694" d="M25 420q0 152 27.5 227.5t92.5 104.5q-57 18 -81.5 85.5t-24.5 200.5q0 190 58.5 263t249 73t249.5 -72.5t59 -263.5q0 -133 -24.5 -200.5t-81.5 -85.5q66 -29 93.5 -105t27.5 -227q0 -240 -61.5 -335t-262.5 -95t-261 94t-60 336zM268 938q0 -49 15.5 -65.5t60.5 -16.5 q43 0 58.5 17.5t15.5 64.5v102q0 47 -15.5 65.5t-58.5 18.5t-59.5 -17t-16.5 -65v-104zM270 299q0 -57 76 -57q72 0 72 59v215q0 47 -14.5 62.5t-61.5 15.5q-43 0 -57.5 -16.5t-14.5 -63.5v-215z" />
<glyph unicode="9" horiz-adv-x="671" d="M20 885q0 283 48 383q27 57 86 81.5t170 24.5q127 0 183 -22.5t97 -79.5q47 -68 47 -393q0 -203 -22.5 -337t-93.5 -251l-158 -258q-2 -2 -6 -8.5t-5 -8.5t-5.5 -6t-8.5 -6t-9 -3t-13 -1h-205q-33 0 -33 29q0 16 12 39l238 393q-35 -20 -98 -21q-111 0 -166 66 q-33 39 -45.5 122t-12.5 257zM262 770q0 -49 13.5 -63.5t60.5 -14.5q41 0 56.5 17.5t15.5 68.5v250q0 55 -16.5 74.5t-61.5 19.5q-39 0 -53.5 -19.5t-14.5 -72.5v-260z" />
<glyph unicode=":" horiz-adv-x="286" d="M23 92v58q0 53 11 72.5t52 19.5h115q41 0 52 -19.5t11 -72.5v-58q0 -53 -11 -72.5t-52 -19.5h-115q-41 0 -52 19.5t-11 72.5zM23 631v57q0 53 11 72.5t52 19.5h115q41 0 52 -19.5t11 -72.5v-57q0 -53 -11 -72.5t-52 -19.5h-115q-41 0 -52 19.5t-11 72.5z" />
<glyph unicode=";" horiz-adv-x="286" d="M23 51v99q0 53 11 72.5t52 19.5h115q41 0 52 -19.5t11 -72.5v-64q0 -39 -22 -98l-39 -105q-14 -41 -43 -41h-99q-35 0 -20 35l37 88q14 35 -10 35h-13q-32 0 -32 51zM23 631v57q0 53 11 72.5t52 19.5h115q41 0 52 -19.5t11 -72.5v-57q0 -53 -11 -72.5t-52 -19.5h-115 q-41 0 -52 19.5t-11 72.5z" />
<glyph unicode="=" horiz-adv-x="770" d="M20 258v57q0 53 11.5 73t52.5 20h602q41 0 52.5 -19.5t11.5 -73.5v-57q0 -53 -11.5 -72.5t-52.5 -19.5h-602q-41 0 -52.5 19.5t-11.5 72.5zM20 625v57q0 53 11.5 72.5t52.5 19.5h602q41 0 52.5 -19.5t11.5 -72.5v-57q0 -53 -11.5 -73t-52.5 -20h-602q-41 0 -52.5 20 t-11.5 73z" />
<glyph unicode="?" horiz-adv-x="548" d="M14 1210v70q0 86 68 86h246q111 0 154.5 -54.5t43.5 -228.5q0 -88 -10 -141t-43 -123l-80 -168q-20 -43 -20 -106v-133q0 -35 -13.5 -47.5t-50.5 -12.5h-102q-39 0 -53.5 15.5t-14.5 60.5v186q0 63 21 107l80 168q33 66 39 90.5t6 67.5t-14.5 60t-53.5 17h-135 q-68 0 -68 86zM139 92v58q0 53 11.5 72.5t52.5 19.5h106q41 0 52.5 -19.5t11.5 -72.5v-58q0 -53 -11.5 -72.5t-52.5 -19.5h-106q-41 0 -52.5 19.5t-11.5 72.5z" />
<glyph unicode="@" horiz-adv-x="991" d="M33 616q0 330 131 523.5t379 193.5q205 0 312.5 -148.5t107.5 -396.5q0 -219 -88.5 -360t-217.5 -141q-35 0 -60.5 22.5t-35.5 55.5q-53 -76 -129 -76t-123 81t-47 195q0 176 66.5 305t177.5 129q53 0 84 -57q16 37 43 37h59q39 0 39 -55q0 -8 -1 -17.5t-3 -23t-2 -19.5 l-47 -350q-2 -12 -2 -39q0 -37 24 -37q23 0 45.5 37t40 121t17.5 197q0 176 -68.5 278.5t-195.5 102.5q-166 0 -254 -157t-88 -401q0 -256 81.5 -360t227.5 -104q143 0 280 49q8 4 19 4q18 0 29 -29l22 -78q6 -16 6 -22q0 -14 -16.5 -24.5t-71.5 -24.5q-139 -35 -278 -35 q-463 -1 -463 624zM420 565q0 -74 11 -100.5t38 -26.5q41 0 70.5 77t29.5 220q0 119 -53 119q-23 0 -44 -30.5t-36.5 -99.5t-15.5 -159z" />
<glyph unicode="A" horiz-adv-x="759" d="M6 31l166 1257q6 45 24.5 61.5t61.5 16.5h238q37 0 55 -17.5t24 -62.5l179 -1255q4 -31 -31 -31h-195q-29 0 -34 37l-39 289q-4 33 -35 32h-86q-31 0 -35 -32l-33 -293q-2 -20 -9 -26.5t-28 -6.5h-188q-18 0 -27.5 8.5t-7.5 22.5zM324 623q-2 -10 5 -16.5t21 -6.5h51 q14 0 22.5 6t6.5 17l-39 471q-2 31 -16.5 30.5t-16.5 -32.5z" />
<glyph unicode="B" horiz-adv-x="739" d="M53 90v1188q0 49 14.5 68.5t51.5 19.5h370q63 0 105.5 -25.5t63 -76t27.5 -106.5t7 -136q0 -242 -110 -309q129 -51 129 -344q0 -174 -49.5 -271.5t-172.5 -97.5h-370q-39 0 -52.5 18.5t-13.5 71.5zM293 283q0 -41 35 -41h39q61 0 80.5 34.5t19.5 135.5q0 104 -22.5 139 t-77.5 35h-39q-20 0 -27.5 -8.5t-7.5 -32.5v-262zM293 868q0 -25 7 -33t28 -8h39q53 0 69.5 31t16.5 117q0 90 -20.5 119.5t-65.5 29.5h-39q-20 0 -27.5 -8t-7.5 -33v-215z" />
<glyph unicode="C" horiz-adv-x="593" d="M35 657v43q0 402 37 531q39 135 198 135h254q35 0 49.5 -16.5t14.5 -55.5v-92q0 -47 -13.5 -62.5t-54.5 -15.5h-155q-59 0 -71.5 -62.5t-12.5 -381.5q0 -168 2 -250t12 -128t22.5 -53t42.5 -7h160q37 0 51.5 -15.5t14.5 -54.5v-98q0 -41 -13.5 -57.5t-48.5 -16.5h-243 q-66 0 -106 17.5t-69.5 56.5t-44 118.5t-20.5 186t-6 278.5z" />
<glyph unicode="D" horiz-adv-x="749" d="M53 88v1186q0 51 14.5 71.5t51.5 20.5h350q57 0 97 -14.5t68 -53t43 -85t24.5 -132.5t11.5 -172t2 -225q0 -307 -21.5 -446.5t-73 -188.5t-163.5 -49h-332q-45 0 -58.5 16.5t-13.5 71.5zM287 297q0 -39 11 -47t64 -8q43 0 60.5 6t31 53t15.5 121t2 242q0 340 -15.5 400 t-99.5 60q-45 0 -57 -10t-12 -51v-766z" />
<glyph unicode="E" horiz-adv-x="616" d="M53 90v1186q0 51 15.5 70.5t54.5 19.5h405q39 0 52.5 -15.5t13.5 -64.5v-76q0 -51 -13.5 -68.5t-52.5 -17.5h-200q-23 0 -30 -8t-7 -37v-190q0 -29 5 -36t32 -7h102q35 0 47 -14.5t12 -55.5v-104q0 -39 -13 -53.5t-46 -14.5h-102q-23 0 -30 -6t-7 -25v-286q0 -27 8 -36 t35 -9h203q41 0 57 -19.5t16 -68.5v-66q0 -88 -69 -88h-418q-41 0 -55.5 18.5t-14.5 71.5z" />
<glyph unicode="F" horiz-adv-x="587" d="M53 86v1186q0 57 13.5 75.5t54.5 18.5h389q41 0 56.5 -19.5t15.5 -68.5v-72q0 -45 -14.5 -63.5t-49.5 -18.5h-188q-25 0 -31 -10t-6 -45v-186q0 -37 26 -37h115q37 0 49.5 -16.5t12.5 -65.5v-72q0 -51 -13.5 -69.5t-50.5 -18.5h-102q-25 0 -31 -9t-6 -44v-465 q0 -49 -12.5 -67.5t-47.5 -18.5h-114q-39 0 -52.5 17.5t-13.5 68.5z" />
<glyph unicode="G" d="M35 532v146q2 389 28 502q37 162 158 182q23 4 47 4h279q41 0 55 -16.5t14 -69.5v-66q0 -51 -13 -70.5t-50 -19.5h-147q-92 0 -109.5 -59t-17.5 -393v-299q0 -131 108 -131q43 0 70.5 28.5t27.5 79.5v201q0 53 -24 53h-60q-25 0 -30.5 13.5t-5.5 50.5v94q0 47 14 65.5 t61 18.5h195q39 0 51 -20.5t12 -69.5v-355q0 -109 -10 -174t-42 -122.5t-96.5 -83t-166.5 -25.5q-57 0 -103.5 8t-82 24.5t-61 41t-43 58.5t-29 76t-17.5 92t-9 109t-3 127z" />
<glyph unicode="H" horiz-adv-x="774" d="M53 90v1188q0 49 15.5 68.5t52.5 19.5h110q61 0 62 -86v-395q0 -39 31 -39h127q31 0 30 39v395q0 86 62 86h110q37 0 52.5 -19.5t15.5 -68.5v-1188q0 -51 -14.5 -70.5t-53.5 -19.5h-108q-39 0 -51.5 20.5t-12.5 67.5v473q0 25 -6 34t-26 9h-123q-20 0 -26.5 -9t-6.5 -34 v-473q0 -47 -12.5 -67.5t-51.5 -20.5h-108q-39 0 -53.5 19.5t-14.5 70.5z" />
<glyph unicode="I" horiz-adv-x="348" d="M53 90v1184q0 53 14.5 72.5t53.5 19.5h110q35 0 49.5 -20.5t14.5 -71.5v-1188q0 -53 -14.5 -69.5t-53.5 -16.5h-102q-43 0 -57.5 17.5t-14.5 72.5z" />
<glyph unicode="J" horiz-adv-x="471" d="M6 84v76q0 51 13.5 66.5t52.5 15.5h53q37 0 51 18.5t14 71.5v948q0 53 13.5 69.5t56.5 16.5h102q43 0 56.5 -16.5t13.5 -67.5v-932q0 -150 -47 -237q-61 -113 -207 -113h-100q-45 0 -58.5 16.5t-13.5 67.5z" />
<glyph unicode="K" horiz-adv-x="768" d="M53 90v1184q0 53 14.5 72.5t53.5 19.5h110q35 0 49.5 -20.5t14.5 -71.5v-305q0 -20 8 -23q6 -2 11 3t12 20l151 319q23 49 35 63.5t43 14.5h182q25 0 25 -25q0 -12 -6 -24l-203 -393q-10 -18 -12 -39q-2 -12 6 -43l207 -781q8 -41 2 -51t-35 -10h-168q-27 0 -38 12.5 t-19 46.5l-97 455q-14 63 -24 64q-12 0 -20.5 -11.5t-41.5 -72.5q-18 -35 -18 -115v-293q0 -53 -14.5 -69.5t-53.5 -16.5h-102q-43 0 -57.5 17.5t-14.5 72.5z" />
<glyph unicode="L" horiz-adv-x="569" d="M53 90v1188q0 47 15.5 67.5t52.5 20.5h108q39 0 52.5 -18.5t13.5 -69.5v-993q0 -43 33 -43h166q39 0 54 -18.5t15 -67.5v-68q0 -47 -17.5 -67.5t-58.5 -20.5h-366q-41 0 -54.5 17.5t-13.5 72.5z" />
<glyph unicode="M" horiz-adv-x="954" d="M53 88v1194q0 51 13.5 67.5t52.5 16.5h112q49 0 64.5 -10t28.5 -53l137 -492q6 -18 16 -18t17 18l137 492q12 43 27.5 53t64.5 10h113q39 0 52 -16.5t13 -67.5v-1194q0 -55 -12 -71.5t-55 -16.5h-109q-39 0 -52.5 18.5t-13.5 67.5v555q0 49 -8 49q-10 0 -18 -45l-82 -405 q-8 -37 -23.5 -49.5t-50.5 -12.5t-50 12.5t-24 49.5l-81 405q-8 45 -19 45q-8 0 -8 -49v-555q0 -49 -13.5 -67.5t-52.5 -18.5h-108q-43 0 -55.5 16.5t-12.5 71.5z" />
<glyph unicode="N" horiz-adv-x="800" d="M53 92v1184q0 53 14.5 71.5t57.5 18.5h94q37 0 51.5 -10t28.5 -53l172 -508q10 -29 23 -29q10 0 10 39v471q0 49 13 69.5t50 20.5h107q39 0 56.5 -18.5t17.5 -73.5v-1182q0 -53 -14.5 -72.5t-57.5 -19.5h-94q-37 0 -51.5 10t-28.5 53l-172 510q-10 29 -23 29 q-10 0 -10 -39v-473q0 -49 -13.5 -69.5t-50.5 -20.5h-106q-39 0 -56.5 18.5t-17.5 73.5z" />
<glyph unicode="O" d="M35 553v133v133q0 41 3 118t8 111.5t16.5 93t27.5 85t41 62.5t57.5 51.5t76.5 27.5t100 12q96 0 160.5 -37.5t98 -85t50 -156t18.5 -183t2 -232.5v-133q0 -43 -3 -119t-9 -113.5t-17.5 -95t-27.5 -86t-41 -64.5t-57.5 -52.5t-76.5 -28.5t-97 -12q-55 0 -99.5 12t-77 28.5 t-57.5 53.5t-41 64.5t-27.5 86t-16.5 94t-8 113.5t-3 119zM274 686q2 -293 14.5 -368.5t76 -75.5t77.5 80q13 70 13 296v68q0 287 -13.5 361.5t-77 74.5t-77 -74.5t-13.5 -361.5z" />
<glyph unicode="P" horiz-adv-x="702" d="M53 88v1184q0 53 14.5 73.5t51.5 20.5h315q262 0 262 -436q0 -207 -58 -314.5t-171 -107.5h-172v-420q0 -53 -12.5 -70.5t-53.5 -17.5h-110q-41 0 -53.5 16.5t-12.5 71.5zM295 784q0 -35 31 -34h67q33 0 47.5 33.5t14.5 148.5q0 119 -15.5 155.5t-52.5 36.5h-59 q-16 0 -24.5 -7t-8.5 -30v-303z" />
<glyph unicode="Q" d="M35 547v131v8v133q0 41 3 118t8 111.5t16.5 93t27.5 85t41 62.5t57.5 51.5t76.5 27.5t97 12q55 0 99.5 -12t77 -27.5t57.5 -51.5t41 -62.5t27.5 -85t16.5 -93t8 -111.5t3 -118v-133q0 -172 -3 -256t-23.5 -187.5t-63.5 -158.5l115 -123q18 -19 18 -34q0 -19 -28 -31 l-136 -60q-8 -4 -17 -4q-27 0 -56 39l-88 113q-6 0 -22.5 -1t-25.5 -1q-53 0 -97 12t-76.5 28.5t-57.5 52.5t-41 63.5t-26.5 85t-16.5 94t-9 111.5t-3 118zM272 686q0 -289 13.5 -366.5t77 -77.5t78.5 81q14 71 14 299v64q0 285 -14.5 360.5t-78 75.5t-77 -74.5 t-13.5 -361.5z" />
<glyph unicode="R" horiz-adv-x="718" d="M53 88v1186q0 53 15.5 72.5t54.5 19.5h293q281 0 280 -422q0 -115 -25.5 -185.5t-84.5 -121.5l119 -582q4 -20 4 -26q0 -29 -37 -29h-160q-29 0 -39 11.5t-16 47.5l-84 492q-4 18 -25 18h-29q-23 0 -22 -18v-465q0 -47 -15.5 -66.5t-52.5 -19.5h-110q-39 0 -52.5 18.5 t-13.5 69.5zM297 848q0 -37 20 -37h68q74 0 74 164q0 150 -70 149h-65q-27 0 -27 -28v-248z" />
<glyph unicode="S" horiz-adv-x="618" d="M10 1118q0 135 61.5 191.5t192.5 56.5h234q57 0 57 -74v-90q0 -43 -14.5 -60.5t-48.5 -17.5h-183q-49 0 -60 -38q-3 -11 -4 -23q0 -28 19 -59l219 -404q78 -143 101.5 -220t23.5 -161q0 -219 -219 -219h-305q-41 0 -54.5 16.5t-13.5 67.5v72q0 53 12.5 69.5t53.5 16.5 h211q41 0 52 33q4 12 4 24q0 22 -13 43l-232 436q-94 178 -94 340z" />
<glyph unicode="T" horiz-adv-x="645" d="M6 1206v70q0 53 13.5 71.5t54.5 18.5h499q37 0 51.5 -17.5t14.5 -64.5v-76q0 -49 -13.5 -66.5t-50.5 -17.5h-106q-27 0 -27 -41v-993q0 -53 -13 -71.5t-52 -18.5h-107q-41 0 -55 17.5t-14 66.5v999q0 41 -27 41h-106q-37 0 -49.5 15.5t-12.5 66.5z" />
<glyph unicode="U" horiz-adv-x="741" d="M41 379v897q0 51 15.5 70.5t56.5 19.5h108q37 0 49.5 -17.5t12.5 -66.5v-934q0 -57 20.5 -81.5t69.5 -24.5q47 0 66.5 25.5t19.5 82.5v932q0 51 13 67.5t52 16.5h113q39 0 51 -16.5t12 -67.5v-893q0 -94 -12 -159.5t-45 -126t-102.5 -91t-173.5 -30.5q-193 0 -259.5 95 t-66.5 302z" />
<glyph unicode="V" horiz-adv-x="745" d="M6 1311q-1 11 -1 20q0 15 4 23q7 12 34 12h158q27 0 38 -11.5t17 -54.5l98 -778q2 -31 18.5 -30.5t18.5 30.5l98 778q6 43 17.5 54.5t38.5 11.5h157q27 0 34 -12q5 -8 5 -23q0 -9 -2 -20l-202 -1256q-4 -31 -16.5 -43t-39.5 -12h-217q-27 0 -39 12.5t-16 42.5z" />
<glyph unicode="W" horiz-adv-x="1132" d="M8 1290q-2 16 -2 29q0 25 8 34q12 13 45 13h140q25 0 35 -12.5t14 -46.5l96 -666q4 -27 18 -27q12 0 17 27l92 393l-29 258q-1 9 -1 17q0 57 53 57h143q27 0 37 -12.5t14 -46.5l80 -664q6 -29 16 -29q14 0 17 29l82 670q6 53 47 53h149q31 0 41 -15q6 -9 6 -26 q0 -14 -4 -33l-213 -1233q-8 -59 -57 -59h-160q-31 0 -42 11.5t-15 49.5l-57 457q0 25 -10.5 25t-14.5 -23l-113 -479q-8 -41 -55 -41h-133q-27 0 -37 10t-14 41z" />
<glyph unicode="X" horiz-adv-x="700" d="M8 18q-3 8 -2 20q0 16 4 38l135 633l-135 583q-4 16 -3 29q0 45 44 45h156q41 0 53 -55l74 -385q4 -27 16 -27t17 27l73 385q12 55 54 55h155q45 0 45 -45q0 -13 -4 -29l-137 -583l137 -633q5 -20 5 -35q0 -41 -38 -41h-159q-47 0 -56 51l-73 424q-2 25 -19 25 q-12 0 -18 -25l-74 -424q-8 -51 -55 -51h-160q-29 0 -35 18z" />
<glyph unicode="Y" horiz-adv-x="704" d="M5 1342q9 24 38 24h137q23 0 34 -9t19 -40l105 -445q8 -23 14 -22.5t15 22.5l104 445q8 31 19.5 40t33.5 9h138q29 0 37 -24q4 -11 5 -22q0 -13 -6 -26l-225 -772v-434q0 -53 -13.5 -70.5t-53.5 -17.5h-107q-41 0 -54.5 17.5t-13.5 70.5v434l-225 772q-5 13 -5 26 q0 11 4 22z" />
<glyph unicode="Z" horiz-adv-x="636" d="M16 82v154q0 70 33 141l326 710q18 37 -17 37h-256q-45 0 -56 14.5t-11 69.5v72q0 53 12 69.5t53 16.5h457q61 0 61 -80v-172q0 -41 -28 -104l-326 -719q-9 -18 -9 -29q0 -20 28 -20h272q39 0 52.5 -17.5t13.5 -70.5v-70q0 -49 -15.5 -66.5t-58.5 -17.5h-465 q-39 0 -52.5 16.5t-13.5 65.5z" />
<glyph unicode="\" horiz-adv-x="385" d="M10 1352q-8 51 21 51h92q33 0 39 -43l213 -1350q8 -51 -21 -51h-92q-33 0 -39 43z" />
<glyph unicode="`" horiz-adv-x="321" d="M-23 1589q0 27 29 27h180q23 0 45 -33l93 -121q10 -12 10 -26q0 -18 -23 -19h-127q-25 0 -45 19l-141 120q-21 19 -21 33z" />
<glyph unicode="a" horiz-adv-x="759" d="M6 31l166 1257q6 45 24.5 61.5t61.5 16.5h238q37 0 55 -17.5t24 -62.5l179 -1255q4 -31 -31 -31h-195q-29 0 -34 37l-39 289q-4 33 -35 32h-86q-31 0 -35 -32l-33 -293q-2 -20 -9 -26.5t-28 -6.5h-188q-18 0 -27.5 8.5t-7.5 22.5zM324 623q-2 -10 5 -16.5t21 -6.5h51 q14 0 22.5 6t6.5 17l-39 471q-2 31 -16.5 30.5t-16.5 -32.5z" />
<glyph unicode="b" horiz-adv-x="739" d="M53 90v1188q0 49 14.5 68.5t51.5 19.5h370q63 0 105.5 -25.5t63 -76t27.5 -106.5t7 -136q0 -242 -110 -309q129 -51 129 -344q0 -174 -49.5 -271.5t-172.5 -97.5h-370q-39 0 -52.5 18.5t-13.5 71.5zM293 283q0 -41 35 -41h39q61 0 80.5 34.5t19.5 135.5q0 104 -22.5 139 t-77.5 35h-39q-20 0 -27.5 -8.5t-7.5 -32.5v-262zM293 868q0 -25 7 -33t28 -8h39q53 0 69.5 31t16.5 117q0 90 -20.5 119.5t-65.5 29.5h-39q-20 0 -27.5 -8t-7.5 -33v-215z" />
<glyph unicode="c" horiz-adv-x="593" d="M35 657v43q0 402 37 531q39 135 198 135h254q35 0 49.5 -16.5t14.5 -55.5v-92q0 -47 -13.5 -62.5t-54.5 -15.5h-155q-59 0 -71.5 -62.5t-12.5 -381.5q0 -168 2 -250t12 -128t22.5 -53t42.5 -7h160q37 0 51.5 -15.5t14.5 -54.5v-98q0 -41 -13.5 -57.5t-48.5 -16.5h-243 q-66 0 -106 17.5t-69.5 56.5t-44 118.5t-20.5 186t-6 278.5z" />
<glyph unicode="d" horiz-adv-x="749" d="M53 88v1186q0 51 14.5 71.5t51.5 20.5h350q57 0 97 -14.5t68 -53t43 -85t24.5 -132.5t11.5 -172t2 -225q0 -307 -21.5 -446.5t-73 -188.5t-163.5 -49h-332q-45 0 -58.5 16.5t-13.5 71.5zM287 297q0 -39 11 -47t64 -8q43 0 60.5 6t31 53t15.5 121t2 242q0 340 -15.5 400 t-99.5 60q-45 0 -57 -10t-12 -51v-766z" />
<glyph unicode="e" horiz-adv-x="616" d="M53 90v1186q0 51 15.5 70.5t54.5 19.5h405q39 0 52.5 -15.5t13.5 -64.5v-76q0 -51 -13.5 -68.5t-52.5 -17.5h-200q-23 0 -30 -8t-7 -37v-190q0 -29 5 -36t32 -7h102q35 0 47 -14.5t12 -55.5v-104q0 -39 -13 -53.5t-46 -14.5h-102q-23 0 -30 -6t-7 -25v-286q0 -27 8 -36 t35 -9h203q41 0 57 -19.5t16 -68.5v-66q0 -88 -69 -88h-418q-41 0 -55.5 18.5t-14.5 71.5z" />
<glyph unicode="f" horiz-adv-x="587" d="M53 86v1186q0 57 13.5 75.5t54.5 18.5h389q41 0 56.5 -19.5t15.5 -68.5v-72q0 -45 -14.5 -63.5t-49.5 -18.5h-188q-25 0 -31 -10t-6 -45v-186q0 -37 26 -37h115q37 0 49.5 -16.5t12.5 -65.5v-72q0 -51 -13.5 -69.5t-50.5 -18.5h-102q-25 0 -31 -9t-6 -44v-465 q0 -49 -12.5 -67.5t-47.5 -18.5h-114q-39 0 -52.5 17.5t-13.5 68.5z" />
<glyph unicode="g" d="M35 532v146q2 389 28 502q37 162 158 182q23 4 47 4h279q41 0 55 -16.5t14 -69.5v-66q0 -51 -13 -70.5t-50 -19.5h-147q-92 0 -109.5 -59t-17.5 -393v-299q0 -131 108 -131q43 0 70.5 28.5t27.5 79.5v201q0 53 -24 53h-60q-25 0 -30.5 13.5t-5.5 50.5v94q0 47 14 65.5 t61 18.5h195q39 0 51 -20.5t12 -69.5v-355q0 -109 -10 -174t-42 -122.5t-96.5 -83t-166.5 -25.5q-57 0 -103.5 8t-82 24.5t-61 41t-43 58.5t-29 76t-17.5 92t-9 109t-3 127z" />
<glyph unicode="h" horiz-adv-x="774" d="M53 90v1188q0 49 15.5 68.5t52.5 19.5h110q61 0 62 -86v-395q0 -39 31 -39h127q31 0 30 39v395q0 86 62 86h110q37 0 52.5 -19.5t15.5 -68.5v-1188q0 -51 -14.5 -70.5t-53.5 -19.5h-108q-39 0 -51.5 20.5t-12.5 67.5v473q0 25 -6 34t-26 9h-123q-20 0 -26.5 -9t-6.5 -34 v-473q0 -47 -12.5 -67.5t-51.5 -20.5h-108q-39 0 -53.5 19.5t-14.5 70.5z" />
<glyph unicode="i" horiz-adv-x="348" d="M53 90v1184q0 53 14.5 72.5t53.5 19.5h110q35 0 49.5 -20.5t14.5 -71.5v-1188q0 -53 -14.5 -69.5t-53.5 -16.5h-102q-43 0 -57.5 17.5t-14.5 72.5z" />
<glyph unicode="j" horiz-adv-x="471" d="M6 84v76q0 51 13.5 66.5t52.5 15.5h53q37 0 51 18.5t14 71.5v948q0 53 13.5 69.5t56.5 16.5h102q43 0 56.5 -16.5t13.5 -67.5v-932q0 -150 -47 -237q-61 -113 -207 -113h-100q-45 0 -58.5 16.5t-13.5 67.5z" />
<glyph unicode="k" horiz-adv-x="768" d="M53 90v1184q0 53 14.5 72.5t53.5 19.5h110q35 0 49.5 -20.5t14.5 -71.5v-305q0 -20 8 -23q6 -2 11 3t12 20l151 319q23 49 35 63.5t43 14.5h182q25 0 25 -25q0 -12 -6 -24l-203 -393q-10 -18 -12 -39q-2 -12 6 -43l207 -781q8 -41 2 -51t-35 -10h-168q-27 0 -38 12.5 t-19 46.5l-97 455q-14 63 -24 64q-12 0 -20.5 -11.5t-41.5 -72.5q-18 -35 -18 -115v-293q0 -53 -14.5 -69.5t-53.5 -16.5h-102q-43 0 -57.5 17.5t-14.5 72.5z" />
<glyph unicode="l" horiz-adv-x="569" d="M53 90v1188q0 47 15.5 67.5t52.5 20.5h108q39 0 52.5 -18.5t13.5 -69.5v-993q0 -43 33 -43h166q39 0 54 -18.5t15 -67.5v-68q0 -47 -17.5 -67.5t-58.5 -20.5h-366q-41 0 -54.5 17.5t-13.5 72.5z" />
<glyph unicode="m" horiz-adv-x="954" d="M53 88v1194q0 51 13.5 67.5t52.5 16.5h112q49 0 64.5 -10t28.5 -53l137 -492q6 -18 16 -18t17 18l137 492q12 43 27.5 53t64.5 10h113q39 0 52 -16.5t13 -67.5v-1194q0 -55 -12 -71.5t-55 -16.5h-109q-39 0 -52.5 18.5t-13.5 67.5v555q0 49 -8 49q-10 0 -18 -45l-82 -405 q-8 -37 -23.5 -49.5t-50.5 -12.5t-50 12.5t-24 49.5l-81 405q-8 45 -19 45q-8 0 -8 -49v-555q0 -49 -13.5 -67.5t-52.5 -18.5h-108q-43 0 -55.5 16.5t-12.5 71.5z" />
<glyph unicode="n" horiz-adv-x="800" d="M53 92v1184q0 53 14.5 71.5t57.5 18.5h94q37 0 51.5 -10t28.5 -53l172 -508q10 -29 23 -29q10 0 10 39v471q0 49 13 69.5t50 20.5h107q39 0 56.5 -18.5t17.5 -73.5v-1182q0 -53 -14.5 -72.5t-57.5 -19.5h-94q-37 0 -51.5 10t-28.5 53l-172 510q-10 29 -23 29 q-10 0 -10 -39v-473q0 -49 -13.5 -69.5t-50.5 -20.5h-106q-39 0 -56.5 18.5t-17.5 73.5z" />
<glyph unicode="o" d="M35 553v133v133q0 41 3 118t8 111.5t16.5 93t27.5 85t41 62.5t57.5 51.5t76.5 27.5t100 12q96 0 160.5 -37.5t98 -85t50 -156t18.5 -183t2 -232.5v-133q0 -43 -3 -119t-9 -113.5t-17.5 -95t-27.5 -86t-41 -64.5t-57.5 -52.5t-76.5 -28.5t-97 -12q-55 0 -99.5 12t-77 28.5 t-57.5 53.5t-41 64.5t-27.5 86t-16.5 94t-8 113.5t-3 119zM274 686q2 -293 14.5 -368.5t76 -75.5t77.5 80q13 70 13 296v68q0 287 -13.5 361.5t-77 74.5t-77 -74.5t-13.5 -361.5z" />
<glyph unicode="p" horiz-adv-x="702" d="M53 88v1184q0 53 14.5 73.5t51.5 20.5h315q262 0 262 -436q0 -207 -58 -314.5t-171 -107.5h-172v-420q0 -53 -12.5 -70.5t-53.5 -17.5h-110q-41 0 -53.5 16.5t-12.5 71.5zM295 784q0 -35 31 -34h67q33 0 47.5 33.5t14.5 148.5q0 119 -15.5 155.5t-52.5 36.5h-59 q-16 0 -24.5 -7t-8.5 -30v-303z" />
<glyph unicode="q" d="M35 547v131v8v133q0 41 3 118t8 111.5t16.5 93t27.5 85t41 62.5t57.5 51.5t76.5 27.5t97 12q55 0 99.5 -12t77 -27.5t57.5 -51.5t41 -62.5t27.5 -85t16.5 -93t8 -111.5t3 -118v-133q0 -172 -3 -256t-23.5 -187.5t-63.5 -158.5l115 -123q18 -19 18 -34q0 -19 -28 -31 l-136 -60q-8 -4 -17 -4q-27 0 -56 39l-88 113q-6 0 -22.5 -1t-25.5 -1q-53 0 -97 12t-76.5 28.5t-57.5 52.5t-41 63.5t-26.5 85t-16.5 94t-9 111.5t-3 118zM272 686q0 -289 13.5 -366.5t77 -77.5t78.5 81q14 71 14 299v64q0 285 -14.5 360.5t-78 75.5t-77 -74.5 t-13.5 -361.5z" />
<glyph unicode="r" horiz-adv-x="718" d="M53 88v1186q0 53 15.5 72.5t54.5 19.5h293q281 0 280 -422q0 -115 -25.5 -185.5t-84.5 -121.5l119 -582q4 -20 4 -26q0 -29 -37 -29h-160q-29 0 -39 11.5t-16 47.5l-84 492q-4 18 -25 18h-29q-23 0 -22 -18v-465q0 -47 -15.5 -66.5t-52.5 -19.5h-110q-39 0 -52.5 18.5 t-13.5 69.5zM297 848q0 -37 20 -37h68q74 0 74 164q0 150 -70 149h-65q-27 0 -27 -28v-248z" />
<glyph unicode="s" horiz-adv-x="618" d="M10 1118q0 135 61.5 191.5t192.5 56.5h234q57 0 57 -74v-90q0 -43 -14.5 -60.5t-48.5 -17.5h-183q-49 0 -60 -38q-3 -11 -4 -23q0 -28 19 -59l219 -404q78 -143 101.5 -220t23.5 -161q0 -219 -219 -219h-305q-41 0 -54.5 16.5t-13.5 67.5v72q0 53 12.5 69.5t53.5 16.5 h211q41 0 52 33q4 12 4 24q0 22 -13 43l-232 436q-94 178 -94 340z" />
<glyph unicode="t" horiz-adv-x="645" d="M6 1206v70q0 53 13.5 71.5t54.5 18.5h499q37 0 51.5 -17.5t14.5 -64.5v-76q0 -49 -13.5 -66.5t-50.5 -17.5h-106q-27 0 -27 -41v-993q0 -53 -13 -71.5t-52 -18.5h-107q-41 0 -55 17.5t-14 66.5v999q0 41 -27 41h-106q-37 0 -49.5 15.5t-12.5 66.5z" />
<glyph unicode="u" horiz-adv-x="741" d="M41 379v897q0 51 15.5 70.5t56.5 19.5h108q37 0 49.5 -17.5t12.5 -66.5v-934q0 -57 20.5 -81.5t69.5 -24.5q47 0 66.5 25.5t19.5 82.5v932q0 51 13 67.5t52 16.5h113q39 0 51 -16.5t12 -67.5v-893q0 -94 -12 -159.5t-45 -126t-102.5 -91t-173.5 -30.5q-193 0 -259.5 95 t-66.5 302z" />
<glyph unicode="v" horiz-adv-x="745" d="M6 1311q-1 11 -1 20q0 15 4 23q7 12 34 12h158q27 0 38 -11.5t17 -54.5l98 -778q2 -31 18.5 -30.5t18.5 30.5l98 778q6 43 17.5 54.5t38.5 11.5h157q27 0 34 -12q5 -8 5 -23q0 -9 -2 -20l-202 -1256q-4 -31 -16.5 -43t-39.5 -12h-217q-27 0 -39 12.5t-16 42.5z" />
<glyph unicode="w" horiz-adv-x="1132" d="M8 1290q-2 16 -2 29q0 25 8 34q12 13 45 13h140q25 0 35 -12.5t14 -46.5l96 -666q4 -27 18 -27q12 0 17 27l92 393l-29 258q-1 9 -1 17q0 57 53 57h143q27 0 37 -12.5t14 -46.5l80 -664q6 -29 16 -29q14 0 17 29l82 670q6 53 47 53h149q31 0 41 -15q6 -9 6 -26 q0 -14 -4 -33l-213 -1233q-8 -59 -57 -59h-160q-31 0 -42 11.5t-15 49.5l-57 457q0 25 -10.5 25t-14.5 -23l-113 -479q-8 -41 -55 -41h-133q-27 0 -37 10t-14 41z" />
<glyph unicode="x" horiz-adv-x="700" d="M8 18q-3 8 -2 20q0 16 4 38l135 633l-135 583q-4 16 -3 29q0 45 44 45h156q41 0 53 -55l74 -385q4 -27 16 -27t17 27l73 385q12 55 54 55h155q45 0 45 -45q0 -13 -4 -29l-137 -583l137 -633q5 -20 5 -35q0 -41 -38 -41h-159q-47 0 -56 51l-73 424q-2 25 -19 25 q-12 0 -18 -25l-74 -424q-8 -51 -55 -51h-160q-29 0 -35 18z" />
<glyph unicode="y" horiz-adv-x="704" d="M5 1342q9 24 38 24h137q23 0 34 -9t19 -40l105 -445q8 -23 14 -22.5t15 22.5l104 445q8 31 19.5 40t33.5 9h138q29 0 37 -24q4 -11 5 -22q0 -13 -6 -26l-225 -772v-434q0 -53 -13.5 -70.5t-53.5 -17.5h-107q-41 0 -54.5 17.5t-13.5 70.5v434l-225 772q-5 13 -5 26 q0 11 4 22z" />
<glyph unicode="z" horiz-adv-x="636" d="M16 82v154q0 70 33 141l326 710q18 37 -17 37h-256q-45 0 -56 14.5t-11 69.5v72q0 53 12 69.5t53 16.5h457q61 0 61 -80v-172q0 -41 -28 -104l-326 -719q-9 -18 -9 -29q0 -20 28 -20h272q39 0 52.5 -17.5t13.5 -70.5v-70q0 -49 -15.5 -66.5t-58.5 -17.5h-465 q-39 0 -52.5 16.5t-13.5 65.5z" />
<glyph unicode="~" horiz-adv-x="1335" d="M0 655v84q0 41 9 56.5t48 35.5q147 82 310 82q119 0 276.5 -60t290.5 -60q170 0 344 73q57 27 57 -35v-90q0 -43 -10 -60t-47 -34q-160 -66 -356 -65q-131 0 -290 61.5t-278 61.5q-117 0 -297 -87q-20 -12 -38.5 -3t-18.5 40z" />
<glyph unicode="&#xa2;" horiz-adv-x="403" d="M33 930q0 219 21.5 302t88.5 95v74q0 18 4.5 23.5t20.5 5.5h70q18 0 22 -5.5t4 -25.5v-68h70q37 0 37 -41v-102q0 -27 -8.5 -35t-30.5 -8h-72q-35 0 -42 -31t-7 -172q0 -137 7 -168t38 -31h74q39 0 39 -38v-107q0 -41 -37 -41h-62v-61q0 -39 -30 -39h-62q-18 0 -25.5 6 t-7.5 26v70q-66 12 -89 90t-23 281z" />
<glyph unicode="&#xa3;" horiz-adv-x="724" d="M16 717v92q0 72 45 72h80q12 0 19 22l30 236q31 227 181 227h235q35 0 49.5 -18.5t14.5 -63.5v-78q0 -45 -11.5 -63.5t-40.5 -18.5h-153q-35 0 -43 -55l-23 -151q-4 -37 17 -37h176q45 0 45 -74v-86q0 -45 -12.5 -62.5t-46.5 -17.5h-181q-16 0 -21 -8t-7 -39l-37 -315 q-6 -37 28 -37h267q37 0 51 -19.5t14 -70.5v-66q0 -49 -14 -67.5t-53 -18.5h-435q-115 0 -110 141l8 127q8 70 47 336q6 37 -12 37h-70q-23 0 -30 15.5t-7 60.5z" />
<glyph unicode="&#xa5;" horiz-adv-x="944" d="M20 502v39q0 37 7.5 49t35.5 12h254l-41 148h-213q-29 0 -36 12t-7 49v39q0 37 8.5 50t34.5 13h164l-110 381q-10 25 -1 48.5t38 23.5h137q23 0 34 -9t19 -40l105 -445q8 -23 14 -22.5t14 22.5l105 445q8 31 19 40t34 9h137q29 0 38 -23.5t-1 -48.5l-113 -381h172 q27 0 35 -13t8 -50v-39q0 -37 -7 -49t-36 -12h-219l-43 -148h262q29 0 36 -12t7 -49v-39q0 -37 -8 -50.5t-35 -13.5h-284v-350q0 -53 -13.5 -70.5t-54.5 -17.5h-106q-41 0 -54.5 17.5t-13.5 70.5v350h-279q-27 0 -35 13.5t-8 50.5z" />
<glyph unicode="&#xa8;" horiz-adv-x="475" d="M20 1481v78q0 37 13.5 50t50.5 13h59q37 0 50.5 -13.5t13.5 -49.5v-78q0 -37 -13.5 -50.5t-50.5 -13.5h-59q-37 0 -50.5 13.5t-13.5 50.5zM268 1481v78q0 37 13.5 50t50.5 13h59q37 0 50.5 -13.5t13.5 -49.5v-78q0 -37 -13.5 -50.5t-50.5 -13.5h-59q-37 0 -50.5 13.5 t-13.5 50.5z" />
<glyph unicode="&#xa9;" horiz-adv-x="733" d="M20 1151q0 143 101.5 244.5t245 101.5t245 -101.5t101.5 -244.5t-101.5 -244.5t-245 -101.5t-245 101.5t-101.5 244.5zM84 1151q0 -117 83 -200t199.5 -83t199.5 83t83 200t-83 200t-199.5 83t-199.5 -83t-83 -200zM225 1147q0 229 146 229q70 0 98.5 -51t26.5 -102h-68 q-4 88 -57 88q-74 0 -74 -162q0 -160 74 -160q59 0 63 115h68q0 -182 -133 -182q-68 0 -106 60.5t-38 164.5z" />
<glyph unicode="&#xab;" horiz-adv-x="432" d="M10 524v264q0 59 27 78l125 92q33 25 33 -18v-137q0 -37 -15 -58l-65 -94l59 -84q20 -31 21 -53v-145q0 -33 -27 -21l-125 90q-33 25 -33 86zM238 524v264q0 59 26 78l125 92q33 25 33 -18v-137q0 -33 -14 -58l-66 -94l59 -84q20 -31 21 -53v-145q0 -33 -27 -21l-125 90 q-32 25 -32 86z" />
<glyph unicode="&#xad;" horiz-adv-x="432" d="M20 672v102q0 51 13.5 67.5t52.5 16.5h260q39 0 52.5 -16.5t13.5 -67.5v-102q0 -51 -13.5 -67.5t-52.5 -16.5h-260q-39 0 -52.5 16.5t-13.5 67.5z" />
<glyph unicode="&#xae;" horiz-adv-x="733" d="M20 1151q0 143 101.5 244.5t245 101.5t245 -101.5t101.5 -244.5t-101.5 -244.5t-245 -101.5t-245 101.5t-101.5 244.5zM84 1151q0 -117 83 -200t199.5 -83t199.5 83t83 200t-83 200t-199.5 83t-199.5 -83t-83 -200zM268 934v432h88q66 0 92.5 -29.5t26.5 -93.5 q0 -88 -49 -117l57 -192h-67l-51 174h-33v-174h-64zM332 1180h16q35 0 47.5 14t12.5 47q0 29 -11.5 40t-42.5 11h-22v-112z" />
<glyph unicode="&#xb4;" horiz-adv-x="380" d="M-6 1436q0 14 10 26l92 121q23 33 45 33h181q29 0 28 -27q0 -14 -20 -33l-142 -120q-20 -18 -45 -19h-127q-22 1 -22 19z" />
<glyph unicode="&#xb8;" horiz-adv-x="251" d="M0 -154q0 37 16.5 50.5t63.5 13.5h43q27 0 27 31q0 18 -29 112h98q33 -109 33 -166q0 -78 -28.5 -123t-78.5 -45h-73q-45 0 -58.5 14.5t-13.5 67.5v45z" />
<glyph unicode="&#xbb;" horiz-adv-x="432" d="M10 369v145q0 23 21 53l59 84l-65 94q-14 20 -15 58v137q0 43 33 18l125 -92q27 -18 27 -78v-264q0 -61 -33 -86l-125 -90q-27 -12 -27 21zM238 369v145q0 27 20 53l59 84l-65 94q-14 20 -14 58v137q0 41 30 18l127 -92q27 -20 27 -78v-264q0 -61 -33 -86l-127 -90 q-24 -12 -24 21z" />
<glyph unicode="&#xc1;" horiz-adv-x="759" d="M6 31l166 1257q6 45 24.5 61.5t61.5 16.5h238q37 0 55 -17.5t24 -62.5l179 -1255q4 -31 -31 -31h-195q-29 0 -34 37l-39 289q-4 33 -35 32h-86q-31 0 -35 -32l-33 -293q-2 -20 -9 -26.5t-28 -6.5h-188q-18 0 -27.5 8.5t-7.5 22.5zM258 1436q0 14 10 26l92 121 q23 33 46 33h180q29 0 28 -27q0 -14 -20 -33l-141 -120q-20 -18 -45 -19h-127q-23 1 -23 19zM324 623q-2 -10 5 -16.5t21 -6.5h51q14 0 22.5 6t6.5 17l-39 471q-2 31 -16.5 30.5t-16.5 -32.5z" />
<glyph unicode="&#xc4;" horiz-adv-x="759" d="M6 31l166 1257q6 45 24.5 61.5t61.5 16.5h238q37 0 55 -17.5t24 -62.5l179 -1255q4 -31 -31 -31h-195q-29 0 -34 37l-39 289q-4 33 -35 32h-86q-31 0 -35 -32l-33 -293q-2 -20 -9 -26.5t-28 -6.5h-188q-18 0 -27.5 8.5t-7.5 22.5zM162 1481v78q0 37 13 50t50 13h60 q37 0 50 -13.5t13 -49.5v-78q0 -37 -13 -50.5t-50 -13.5h-60q-37 0 -50 13.5t-13 50.5zM324 623q-2 -10 5 -16.5t21 -6.5h51q14 0 22.5 6t6.5 17l-39 471q-2 31 -16.5 30.5t-16.5 -32.5zM410 1481v78q0 37 13 50t50 13h59q37 0 50.5 -13.5t13.5 -49.5v-78q0 -37 -13.5 -50.5 t-50.5 -13.5h-59q-37 0 -50 13.5t-13 50.5z" />
<glyph unicode="&#xc9;" horiz-adv-x="616" d="M53 90v1186q0 51 15.5 70.5t54.5 19.5h405q39 0 52.5 -15.5t13.5 -64.5v-76q0 -51 -13.5 -68.5t-52.5 -17.5h-200q-23 0 -30 -8t-7 -37v-190q0 -29 5 -36t32 -7h102q35 0 47 -14.5t12 -55.5v-104q0 -39 -13 -53.5t-46 -14.5h-102q-23 0 -30 -6t-7 -25v-286q0 -27 8 -36 t35 -9h203q41 0 57 -19.5t16 -68.5v-66q0 -88 -69 -88h-418q-41 0 -55.5 18.5t-14.5 71.5zM152 1436q0 14 10 26l92 121q23 33 45 33h180q29 0 29 -27q0 -14 -21 -33l-141 -120q-20 -18 -45 -19h-127q-22 1 -22 19z" />
<glyph unicode="&#xcd;" horiz-adv-x="348" d="M16 1436q0 14 11 26l92 121q23 33 45 33h180q29 0 29 -27q0 -14 -21 -33l-141 -120q-20 -18 -45 -19h-127q-23 1 -23 19zM53 90v1184q0 53 14.5 72.5t53.5 19.5h110q35 0 49.5 -20.5t14.5 -71.5v-1188q0 -53 -14.5 -69.5t-53.5 -16.5h-102q-43 0 -57.5 17.5t-14.5 72.5z " />
<glyph unicode="&#xd3;" d="M35 553v133v133q0 41 3 118t8 111.5t16.5 93t27.5 85t41 62.5t57.5 51.5t76.5 27.5t100 12q96 0 160.5 -37.5t98 -85t50 -156t18.5 -183t2 -232.5v-133q0 -43 -3 -119t-9 -113.5t-17.5 -95t-27.5 -86t-41 -64.5t-57.5 -52.5t-76.5 -28.5t-97 -12q-55 0 -99.5 12t-77 28.5 t-57.5 53.5t-41 64.5t-27.5 86t-16.5 94t-8 113.5t-3 119zM213 1436q0 14 10 26l92 121q23 33 45 33h181q29 0 28 -27q0 -14 -20 -33l-141 -120q-20 -18 -46 -19h-126q-23 1 -23 19zM274 686q2 -293 14.5 -368.5t76 -75.5t78 79.5t12.5 364.5q0 287 -13.5 361.5t-77 74.5 t-77 -74.5t-13.5 -361.5z" />
<glyph unicode="&#xd4;" d="M35 553v133v133q0 41 3 118t8 111.5t16.5 93t27.5 85t41 62.5t57.5 51.5t76.5 27.5t100 12q96 0 160.5 -37.5t98 -85t50 -156t18.5 -183t2 -232.5v-133q0 -43 -3 -119t-9 -113.5t-17.5 -95t-27.5 -86t-41 -64.5t-57.5 -52.5t-76.5 -28.5t-97 -12q-55 0 -99.5 12t-77 28.5 t-57.5 53.5t-41 64.5t-27.5 86t-16.5 94t-8 113.5t-3 119zM121 1432q0 6 4 18l70 133q16 33 55 33h211q39 0 55 -33l70 -133q4 -12 4 -18q0 -14 -19 -15h-110q-31 0 -47 21l-60 78l-57 -78q-16 -20 -47 -21h-111q-18 1 -18 15zM274 686q2 -293 14.5 -368.5t76 -75.5t78 79.5 t12.5 364.5q0 287 -13.5 361.5t-77 74.5t-77 -74.5t-13.5 -361.5z" />
<glyph unicode="&#xd6;" d="M35 553v133v133q0 41 3 118t8 111.5t16.5 93t27.5 85t41 62.5t57.5 51.5t76.5 27.5t100 12q96 0 160.5 -37.5t98 -85t50 -156t18.5 -183t2 -232.5v-133q0 -43 -3 -119t-9 -113.5t-17.5 -95t-27.5 -86t-41 -64.5t-57.5 -52.5t-76.5 -28.5t-97 -12q-55 0 -99.5 12t-77 28.5 t-57.5 53.5t-41 64.5t-27.5 86t-16.5 94t-8 113.5t-3 119zM133 1481v78q0 37 13.5 50t50.5 13h59q37 0 50 -13.5t13 -49.5v-78q0 -37 -13 -50.5t-50 -13.5h-59q-37 0 -50.5 13.5t-13.5 50.5zM274 686q2 -293 14.5 -368.5t76 -75.5t78 79.5t12.5 364.5q0 287 -13.5 361.5 t-77 74.5t-77 -74.5t-13.5 -361.5zM381 1481v78q0 37 13.5 50t49.5 13h60q37 0 50 -13.5t13 -49.5v-78q0 -37 -13 -50.5t-50 -13.5h-60q-37 0 -50 13.5t-13 50.5z" />
<glyph unicode="&#xda;" horiz-adv-x="741" d="M41 379v897q0 51 15.5 70.5t56.5 19.5h108q37 0 49.5 -17.5t12.5 -66.5v-934q0 -57 20.5 -81.5t69.5 -24.5q47 0 66.5 25.5t19.5 82.5v932q0 51 13 67.5t52 16.5h113q39 0 51 -16.5t12 -67.5v-893q0 -94 -12 -159.5t-45 -126t-102.5 -91t-173.5 -30.5q-193 0 -259.5 95 t-66.5 302zM219 1436q0 14 10 26l93 121q23 33 45 33h180q29 0 28 -27q0 -14 -20 -33l-141 -120q-20 -18 -45 -19h-127q-23 1 -23 19z" />
<glyph unicode="&#xdc;" horiz-adv-x="741" d="M41 379v897q0 51 15.5 70.5t56.5 19.5h108q37 0 49.5 -17.5t12.5 -66.5v-934q0 -57 20.5 -81.5t69.5 -24.5q47 0 66.5 25.5t19.5 82.5v932q0 51 13 67.5t52 16.5h113q39 0 51 -16.5t12 -67.5v-893q0 -94 -12 -159.5t-45 -126t-102.5 -91t-173.5 -30.5q-193 0 -259.5 95 t-66.5 302zM137 1481v78q0 37 13.5 50t50.5 13h59q37 0 50.5 -13.5t13.5 -49.5v-78q0 -37 -13.5 -50.5t-50.5 -13.5h-59q-37 0 -50.5 13.5t-13.5 50.5zM385 1481v78q0 37 13.5 50t50.5 13h59q37 0 50 -13.5t13 -49.5v-78q0 -37 -13 -50.5t-50 -13.5h-59q-37 0 -50.5 13.5 t-13.5 50.5z" />
<glyph unicode="&#xdd;" horiz-adv-x="704" d="M5 1342q9 24 38 24h137q23 0 34 -9t19 -40l105 -445q8 -23 14 -22.5t15 22.5l104 445q8 31 19.5 40t33.5 9h138q29 0 37 -24q4 -11 5 -22q0 -13 -6 -26l-225 -772v-434q0 -53 -13.5 -70.5t-53.5 -17.5h-107q-41 0 -54.5 17.5t-13.5 70.5v434l-225 772q-5 13 -5 26 q0 11 4 22zM193 1436q0 14 10 26l92 121q23 33 45 33h181q29 0 28 -27q0 -14 -20 -33l-142 -120q-20 -18 -45 -19h-127q-22 1 -22 19z" />
<glyph unicode="&#xdf;" horiz-adv-x="782" d="M53 92v1186q0 49 14.5 68.5t51.5 19.5h426q63 0 105 -25.5t62.5 -76t28 -106.5t7.5 -136q0 -242 -111 -309q129 -51 129 -344q0 -174 -49 -271.5t-172 -97.5h-160q-23 0 -30 8t-7 33v149q0 51 37 52h35q61 0 80.5 34.5t19.5 135.5q0 106 -22.5 141t-75.5 33l-12 -2 q-20 0 -27.5 8t-7.5 33v151q0 51 35 51h10q53 0 70.5 31t17.5 117q0 90 -21.5 119.5t-64.5 29.5h-94q-20 0 -27.5 -8t-7.5 -33v-991q0 -55 -12.5 -73.5t-51.5 -18.5h-110q-39 0 -52.5 19.5t-13.5 72.5z" />
<glyph unicode="&#xe1;" horiz-adv-x="759" d="M6 31l166 1257q6 45 24.5 61.5t61.5 16.5h238q37 0 55 -17.5t24 -62.5l179 -1255q4 -31 -31 -31h-195q-29 0 -34 37l-39 289q-4 33 -35 32h-86q-31 0 -35 -32l-33 -293q-2 -20 -9 -26.5t-28 -6.5h-188q-18 0 -27.5 8.5t-7.5 22.5zM258 1436q0 14 10 26l92 121 q23 33 46 33h180q29 0 28 -27q0 -14 -20 -33l-141 -120q-20 -18 -45 -19h-127q-23 1 -23 19zM324 623q-2 -10 5 -16.5t21 -6.5h51q14 0 22.5 6t6.5 17l-39 471q-2 31 -16.5 30.5t-16.5 -32.5z" />
<glyph unicode="&#xe4;" horiz-adv-x="759" d="M6 31l166 1257q6 45 24.5 61.5t61.5 16.5h238q37 0 55 -17.5t24 -62.5l179 -1255q4 -31 -31 -31h-195q-29 0 -34 37l-39 289q-4 33 -35 32h-86q-31 0 -35 -32l-33 -293q-2 -20 -9 -26.5t-28 -6.5h-188q-18 0 -27.5 8.5t-7.5 22.5zM162 1481v78q0 37 13 50t50 13h60 q37 0 50 -13.5t13 -49.5v-78q0 -37 -13 -50.5t-50 -13.5h-60q-37 0 -50 13.5t-13 50.5zM324 623q-2 -10 5 -16.5t21 -6.5h51q14 0 22.5 6t6.5 17l-39 471q-2 31 -16.5 30.5t-16.5 -32.5zM410 1481v78q0 37 13 50t50 13h59q37 0 50.5 -13.5t13.5 -49.5v-78q0 -37 -13.5 -50.5 t-50.5 -13.5h-59q-37 0 -50 13.5t-13 50.5z" />
<glyph unicode="&#xe9;" horiz-adv-x="616" d="M53 90v1186q0 51 15.5 70.5t54.5 19.5h405q39 0 52.5 -15.5t13.5 -64.5v-76q0 -51 -13.5 -68.5t-52.5 -17.5h-200q-23 0 -30 -8t-7 -37v-190q0 -29 5 -36t32 -7h102q35 0 47 -14.5t12 -55.5v-104q0 -39 -13 -53.5t-46 -14.5h-102q-23 0 -30 -6t-7 -25v-286q0 -27 8 -36 t35 -9h203q41 0 57 -19.5t16 -68.5v-66q0 -88 -69 -88h-418q-41 0 -55.5 18.5t-14.5 71.5zM152 1436q0 14 10 26l92 121q23 33 45 33h180q29 0 29 -27q0 -14 -21 -33l-141 -120q-20 -18 -45 -19h-127q-22 1 -22 19z" />
<glyph unicode="&#xed;" horiz-adv-x="348" d="M16 1436q0 14 11 26l92 121q23 33 45 33h180q29 0 29 -27q0 -14 -21 -33l-141 -120q-20 -18 -45 -19h-127q-23 1 -23 19zM53 90v1184q0 53 14.5 72.5t53.5 19.5h110q35 0 49.5 -20.5t14.5 -71.5v-1188q0 -53 -14.5 -69.5t-53.5 -16.5h-102q-43 0 -57.5 17.5t-14.5 72.5z " />
<glyph unicode="&#xf3;" d="M35 553v133v133q0 41 3 118t8 111.5t16.5 93t27.5 85t41 62.5t57.5 51.5t76.5 27.5t100 12q96 0 160.5 -37.5t98 -85t50 -156t18.5 -183t2 -232.5v-133q0 -43 -3 -119t-9 -113.5t-17.5 -95t-27.5 -86t-41 -64.5t-57.5 -52.5t-76.5 -28.5t-97 -12q-55 0 -99.5 12t-77 28.5 t-57.5 53.5t-41 64.5t-27.5 86t-16.5 94t-8 113.5t-3 119zM213 1436q0 14 10 26l92 121q23 33 45 33h181q29 0 28 -27q0 -14 -20 -33l-141 -120q-20 -18 -46 -19h-126q-23 1 -23 19zM274 686q2 -293 14.5 -368.5t76 -75.5t78 79.5t12.5 364.5q0 287 -13.5 361.5t-77 74.5 t-77 -74.5t-13.5 -361.5z" />
<glyph unicode="&#xf4;" d="M35 553v133v133q0 41 3 118t8 111.5t16.5 93t27.5 85t41 62.5t57.5 51.5t76.5 27.5t100 12q96 0 160.5 -37.5t98 -85t50 -156t18.5 -183t2 -232.5v-133q0 -43 -3 -119t-9 -113.5t-17.5 -95t-27.5 -86t-41 -64.5t-57.5 -52.5t-76.5 -28.5t-97 -12q-55 0 -99.5 12t-77 28.5 t-57.5 53.5t-41 64.5t-27.5 86t-16.5 94t-8 113.5t-3 119zM121 1432q0 6 4 18l70 133q16 33 55 33h211q39 0 55 -33l70 -133q4 -12 4 -18q0 -14 -19 -15h-110q-31 0 -47 21l-60 78l-57 -78q-16 -20 -47 -21h-111q-18 1 -18 15zM274 686q2 -293 14.5 -368.5t76 -75.5t78 79.5 t12.5 364.5q0 287 -13.5 361.5t-77 74.5t-77 -74.5t-13.5 -361.5z" />
<glyph unicode="&#xf6;" d="M35 553v133v133q0 41 3 118t8 111.5t16.5 93t27.5 85t41 62.5t57.5 51.5t76.5 27.5t100 12q96 0 160.5 -37.5t98 -85t50 -156t18.5 -183t2 -232.5v-133q0 -43 -3 -119t-9 -113.5t-17.5 -95t-27.5 -86t-41 -64.5t-57.5 -52.5t-76.5 -28.5t-97 -12q-55 0 -99.5 12t-77 28.5 t-57.5 53.5t-41 64.5t-27.5 86t-16.5 94t-8 113.5t-3 119zM133 1481v78q0 37 13.5 50t50.5 13h59q37 0 50 -13.5t13 -49.5v-78q0 -37 -13 -50.5t-50 -13.5h-59q-37 0 -50.5 13.5t-13.5 50.5zM274 686q2 -293 14.5 -368.5t76 -75.5t78 79.5t12.5 364.5q0 287 -13.5 361.5 t-77 74.5t-77 -74.5t-13.5 -361.5zM381 1481v78q0 37 13.5 50t49.5 13h60q37 0 50 -13.5t13 -49.5v-78q0 -37 -13 -50.5t-50 -13.5h-60q-37 0 -50 13.5t-13 50.5z" />
<glyph unicode="&#xfa;" horiz-adv-x="741" d="M41 379v897q0 51 15.5 70.5t56.5 19.5h108q37 0 49.5 -17.5t12.5 -66.5v-934q0 -57 20.5 -81.5t69.5 -24.5q47 0 66.5 25.5t19.5 82.5v932q0 51 13 67.5t52 16.5h113q39 0 51 -16.5t12 -67.5v-893q0 -94 -12 -159.5t-45 -126t-102.5 -91t-173.5 -30.5q-193 0 -259.5 95 t-66.5 302zM219 1436q0 14 10 26l93 121q23 33 45 33h180q29 0 28 -27q0 -14 -20 -33l-141 -120q-20 -18 -45 -19h-127q-23 1 -23 19z" />
<glyph unicode="&#xfc;" horiz-adv-x="741" d="M41 379v897q0 51 15.5 70.5t56.5 19.5h108q37 0 49.5 -17.5t12.5 -66.5v-934q0 -57 20.5 -81.5t69.5 -24.5q47 0 66.5 25.5t19.5 82.5v932q0 51 13 67.5t52 16.5h113q39 0 51 -16.5t12 -67.5v-893q0 -94 -12 -159.5t-45 -126t-102.5 -91t-173.5 -30.5q-193 0 -259.5 95 t-66.5 302zM137 1481v78q0 37 13.5 50t50.5 13h59q37 0 50.5 -13.5t13.5 -49.5v-78q0 -37 -13.5 -50.5t-50.5 -13.5h-59q-37 0 -50.5 13.5t-13.5 50.5zM385 1481v78q0 37 13.5 50t50.5 13h59q37 0 50 -13.5t13 -49.5v-78q0 -37 -13 -50.5t-50 -13.5h-59q-37 0 -50.5 13.5 t-13.5 50.5z" />
<glyph unicode="&#xfd;" horiz-adv-x="704" d="M5 1342q9 24 38 24h137q23 0 34 -9t19 -40l105 -445q8 -23 14 -22.5t15 22.5l104 445q8 31 19.5 40t33.5 9h138q29 0 37 -24q4 -11 5 -22q0 -13 -6 -26l-225 -772v-434q0 -53 -13.5 -70.5t-53.5 -17.5h-107q-41 0 -54.5 17.5t-13.5 70.5v434l-225 772q-5 13 -5 26 q0 11 4 22zM193 1436q0 14 10 26l92 121q23 33 45 33h181q29 0 28 -27q0 -14 -20 -33l-142 -120q-20 -18 -45 -19h-127q-22 1 -22 19z" />
<glyph unicode="&#x10c;" horiz-adv-x="593" d="M35 657q-2 438 37 573.5t198 135.5h254q35 0 49.5 -16.5t14.5 -55.5v-92q0 -47 -13.5 -62.5t-54.5 -15.5h-155q-59 0 -71.5 -62.5t-12.5 -381.5q0 -168 2 -250t12 -128t22.5 -53t42.5 -7h160q37 0 51.5 -15.5t14.5 -54.5v-98q0 -41 -13.5 -57.5t-48.5 -16.5h-243 q-66 0 -106 17.5t-69.5 56.5t-44 118.5t-20.5 186t-6 278.5zM96 1602q0 14 19 14h110q31 0 47 -21l60 -77l57 77q16 20 47 21h111q18 0 18 -14q0 -12 -4 -19l-69 -135q-16 -31 -56 -31h-211q-41 0 -55 31l-70 135q-4 13 -4 19z" />
<glyph unicode="&#x10d;" horiz-adv-x="593" d="M35 657q-2 438 37 573.5t198 135.5h254q35 0 49.5 -16.5t14.5 -55.5v-92q0 -47 -13.5 -62.5t-54.5 -15.5h-155q-59 0 -71.5 -62.5t-12.5 -381.5q0 -168 2 -250t12 -128t22.5 -53t42.5 -7h160q37 0 51.5 -15.5t14.5 -54.5v-98q0 -41 -13.5 -57.5t-48.5 -16.5h-243 q-66 0 -106 17.5t-69.5 56.5t-44 118.5t-20.5 186t-6 278.5zM106 1602q0 14 19 14h111q31 0 47 -21l59 -77l57 77q16 20 47 21h111q18 0 18 -14q0 -12 -4 -19l-69 -135q-14 -31 -56 -31h-210q-39 0 -56 31l-69 135q-5 13 -5 19z" />
<glyph unicode="&#x10e;" horiz-adv-x="749" d="M53 88v1186q0 51 14.5 71.5t51.5 20.5h350q57 0 97 -14.5t68 -53t43 -85t24.5 -132.5t11.5 -172t2 -225q0 -307 -21.5 -446.5t-73 -188.5t-163.5 -49h-332q-45 0 -58.5 16.5t-13.5 71.5zM125 1602q0 14 18 14h111q31 0 47 -21l59 -77l58 77q16 20 47 21h110q18 0 19 -14 q0 -12 -4 -19l-70 -135q-16 -31 -55 -31h-211q-41 0 -55 31l-70 135q-4 13 -4 19zM287 297q0 -39 11 -47t64 -8q43 0 60.5 6t31 53t15.5 121t2 242q0 340 -15.5 400t-99.5 60q-45 0 -57 -10t-12 -51v-766z" />
<glyph unicode="&#x10f;" horiz-adv-x="749" d="M53 88v1186q0 51 14.5 71.5t51.5 20.5h350q57 0 97 -14.5t68 -53t43 -85t24.5 -132.5t11.5 -172t2 -225q0 -307 -21.5 -446.5t-73 -188.5t-163.5 -49h-332q-45 0 -58.5 16.5t-13.5 71.5zM125 1602q0 14 18 14h111q31 0 47 -21l59 -77l58 77q16 20 47 21h110q18 0 19 -14 q0 -12 -4 -19l-70 -135q-16 -31 -55 -31h-211q-41 0 -55 31l-70 135q-4 13 -4 19zM287 297q0 -39 11 -47t64 -8q43 0 60.5 6t31 53t15.5 121t2 242q0 340 -15.5 400t-99.5 60q-45 0 -57 -10t-12 -51v-766z" />
<glyph unicode="&#x11a;" horiz-adv-x="616" d="M53 90v1186q0 51 15.5 70.5t54.5 19.5h405q39 0 52.5 -15.5t13.5 -64.5v-76q0 -51 -13.5 -68.5t-52.5 -17.5h-200q-23 0 -30 -8t-7 -37v-190q0 -29 5 -36t32 -7h102q35 0 47 -14.5t12 -55.5v-104q0 -39 -13 -53.5t-46 -14.5h-102q-23 0 -30 -6t-7 -25v-286q0 -27 8 -36 t35 -9h203q41 0 57 -19.5t16 -68.5v-66q0 -88 -69 -88h-418q-41 0 -55.5 18.5t-14.5 71.5zM92 1602q0 14 19 14h110q31 0 47 -21l60 -77l57 77q16 20 47 21h111q18 0 18 -14q0 -12 -4 -19l-70 -135q-16 -31 -55 -31h-211q-41 0 -55 31l-70 135q-4 13 -4 19z" />
<glyph unicode="&#x11b;" horiz-adv-x="616" d="M53 90v1186q0 51 15.5 70.5t54.5 19.5h405q39 0 52.5 -15.5t13.5 -64.5v-76q0 -51 -13.5 -68.5t-52.5 -17.5h-200q-23 0 -30 -8t-7 -37v-190q0 -29 5 -36t32 -7h102q35 0 47 -14.5t12 -55.5v-104q0 -39 -13 -53.5t-46 -14.5h-102q-23 0 -30 -6t-7 -25v-286q0 -27 8 -36 t35 -9h203q41 0 57 -19.5t16 -68.5v-66q0 -88 -69 -88h-418q-41 0 -55.5 18.5t-14.5 71.5zM92 1602q0 14 19 14h110q31 0 47 -21l60 -77l57 77q16 20 47 21h111q18 0 18 -14q0 -12 -4 -19l-70 -135q-16 -31 -55 -31h-211q-41 0 -55 31l-70 135q-4 13 -4 19z" />
<glyph unicode="&#x139;" horiz-adv-x="569" d="M223 1522q0 14 10 26l92 121q23 33 45 33h181q29 0 28 -27q0 -14 -20 -33l-142 -120q-20 -18 -45 -19h-127q-22 1 -22 19zM53 90v1188q0 47 15.5 67.5t52.5 20.5h108q39 0 52.5 -18.5t13.5 -69.5v-993q0 -43 33 -43h166q39 0 54 -18.5t15 -67.5v-68q0 -47 -17.5 -67.5 t-58.5 -20.5h-366q-41 0 -54.5 17.5t-13.5 72.5z" />
<glyph unicode="&#x13a;" horiz-adv-x="569" d="M88 1522q0 14 10 26l92 121q23 33 45 33h181q29 0 28 -27q0 -14 -20 -33l-142 -120q-20 -18 -45 -19h-127q-22 1 -22 19zM53 90v1188q0 47 15.5 67.5t52.5 20.5h108q39 0 52.5 -18.5t13.5 -69.5v-993q0 -43 33 -43h166q39 0 54 -18.5t15 -67.5v-68q0 -47 -17.5 -67.5 t-58.5 -20.5h-366q-41 0 -54.5 17.5t-13.5 72.5z" />
<glyph unicode="&#x13d;" horiz-adv-x="569" d="M53 90v1188q0 47 15.5 67.5t52.5 20.5h108q39 0 52.5 -18.5t13.5 -69.5v-993q0 -43 33 -43h166q39 0 54 -18.5t15 -67.5v-68q0 -47 -17.5 -67.5t-58.5 -20.5h-366q-41 0 -54.5 17.5t-13.5 72.5zM338 1200v76q0 51 14.5 70.5t53.5 19.5h83q35 0 49.5 -18.5t14.5 -65.5v-84 q0 -45 -8 -72l-51 -155q-12 -39 -45 -39h-74q-20 0 -24.5 6t3.5 33l41 116q14 37 -10 37h-14q-20 0 -26.5 14.5t-6.5 61.5z" />
<glyph unicode="&#x13e;" horiz-adv-x="569" d="M53 90v1188q0 47 15.5 67.5t52.5 20.5h108q39 0 52.5 -18.5t13.5 -69.5v-993q0 -43 33 -43h166q39 0 54 -18.5t15 -67.5v-68q0 -47 -17.5 -67.5t-58.5 -20.5h-366q-41 0 -54.5 17.5t-13.5 72.5zM338 1200v76q0 51 14.5 70.5t53.5 19.5h83q35 0 49.5 -18.5t14.5 -65.5v-84 q0 -45 -8 -72l-51 -155q-12 -39 -45 -39h-74q-20 0 -24.5 6t3.5 33l41 116q14 37 -10 37h-14q-20 0 -26.5 14.5t-6.5 61.5z" />
<glyph unicode="&#x147;" horiz-adv-x="800" d="M53 92v1184q0 53 14.5 71.5t57.5 18.5h94q37 0 51.5 -10t28.5 -53l172 -508q10 -29 23 -29q10 0 10 39v471q0 49 13 69.5t50 20.5h107q39 0 56.5 -18.5t17.5 -73.5v-1182q0 -53 -14.5 -72.5t-57.5 -19.5h-94q-37 0 -51.5 10t-28.5 53l-172 510q-10 29 -23 29 q-10 0 -10 -39v-473q0 -49 -13.5 -69.5t-50.5 -20.5h-106q-39 0 -56.5 18.5t-17.5 73.5zM160 1602q0 14 18 14h111q31 0 47 -21l59 -77l58 77q16 20 47 21h110q18 0 19 -14q0 -12 -4 -19l-70 -135q-14 -31 -55 -31h-211q-39 0 -56 31l-69 135q-4 13 -4 19z" />
<glyph unicode="&#x148;" horiz-adv-x="800" d="M53 92v1184q0 53 14.5 71.5t57.5 18.5h94q37 0 51.5 -10t28.5 -53l172 -508q10 -29 23 -29q10 0 10 39v471q0 49 13 69.5t50 20.5h107q39 0 56.5 -18.5t17.5 -73.5v-1182q0 -53 -14.5 -72.5t-57.5 -19.5h-94q-37 0 -51.5 10t-28.5 53l-172 510q-10 29 -23 29 q-10 0 -10 -39v-473q0 -49 -13.5 -69.5t-50.5 -20.5h-106q-39 0 -56.5 18.5t-17.5 73.5zM160 1602q0 14 18 14h111q31 0 47 -21l59 -77l58 77q16 20 47 21h110q18 0 19 -14q0 -12 -4 -19l-70 -135q-14 -31 -55 -31h-211q-39 0 -56 31l-69 135q-4 13 -4 19z" />
<glyph unicode="&#x154;" horiz-adv-x="718" d="M182 1522q0 14 10 26l92 121q23 33 45 33h181q29 0 28 -27q0 -14 -20 -33l-142 -120q-20 -18 -45 -19h-127q-22 1 -22 19zM53 88v1186q0 53 15.5 72.5t54.5 19.5h293q281 0 280 -422q0 -115 -25.5 -185.5t-84.5 -121.5l119 -582q4 -20 4 -26q0 -29 -37 -29h-160 q-29 0 -39 11.5t-16 47.5l-84 492q-4 18 -25 18h-29q-23 0 -22 -18v-465q0 -47 -15.5 -66.5t-52.5 -19.5h-110q-39 0 -52.5 18.5t-13.5 69.5zM297 848q0 -37 20 -37h68q74 0 74 164q0 150 -70 149h-65q-27 0 -27 -28v-248z" />
<glyph unicode="&#x155;" horiz-adv-x="718" d="M295 1522q0 14 10 26l92 121q23 33 45 33h181q29 0 28 -27q0 -14 -20 -33l-142 -120q-20 -18 -45 -19h-127q-22 1 -22 19zM53 88v1186q0 53 15.5 72.5t54.5 19.5h293q281 0 280 -422q0 -115 -25.5 -185.5t-84.5 -121.5l119 -582q4 -20 4 -26q0 -29 -37 -29h-160 q-29 0 -39 11.5t-16 47.5l-84 492q-4 18 -25 18h-29q-23 0 -22 -18v-465q0 -47 -15.5 -66.5t-52.5 -19.5h-110q-39 0 -52.5 18.5t-13.5 69.5zM297 848q0 -37 20 -37h68q74 0 74 164q0 150 -70 149h-65q-27 0 -27 -28v-248z" />
<glyph unicode="&#x158;" horiz-adv-x="718" d="M53 88v1186q0 53 15.5 72.5t54.5 19.5h293q281 0 280 -422q0 -115 -25.5 -185.5t-84.5 -121.5l119 -582q4 -20 4 -26q0 -29 -37 -29h-160q-29 0 -39 11.5t-16 47.5l-84 492q-4 18 -25 18h-29q-23 0 -22 -18v-465q0 -47 -15.5 -66.5t-52.5 -19.5h-110q-39 0 -52.5 18.5 t-13.5 69.5zM106 1602q0 14 19 14h111q31 0 47 -21l59 -77l57 77q16 20 47 21h111q18 0 18 -14q0 -12 -4 -19l-69 -135q-14 -31 -56 -31h-210q-39 0 -56 31l-69 135q-5 13 -5 19zM297 848q0 -37 20 -37h68q74 0 74 164q0 150 -70 149h-65q-27 0 -27 -28v-248z" />
<glyph unicode="&#x159;" horiz-adv-x="718" d="M53 88v1186q0 53 15.5 72.5t54.5 19.5h293q281 0 280 -422q0 -115 -25.5 -185.5t-84.5 -121.5l119 -582q4 -20 4 -26q0 -29 -37 -29h-160q-29 0 -39 11.5t-16 47.5l-84 492q-4 18 -25 18h-29q-23 0 -22 -18v-465q0 -47 -15.5 -66.5t-52.5 -19.5h-110q-39 0 -52.5 18.5 t-13.5 69.5zM106 1602q0 14 19 14h111q31 0 47 -21l59 -77l57 77q16 20 47 21h111q18 0 18 -14q0 -12 -4 -19l-69 -135q-14 -31 -56 -31h-210q-39 0 -56 31l-69 135q-5 13 -5 19zM297 848q0 -37 20 -37h68q74 0 74 164q0 150 -70 149h-65q-27 0 -27 -28v-248z" />
<glyph unicode="&#x160;" horiz-adv-x="618" d="M10 1118q0 135 61.5 191.5t192.5 56.5h234q57 0 57 -74v-90q0 -43 -14.5 -60.5t-48.5 -17.5h-183q-49 0 -60 -38q-3 -11 -4 -23q0 -28 19 -59l219 -404q78 -143 101.5 -220t23.5 -161q0 -219 -219 -219h-305q-41 0 -54.5 16.5t-13.5 67.5v72q0 53 12.5 69.5t53.5 16.5 h211q41 0 52 33q4 12 4 24q0 22 -13 43l-232 436q-94 178 -94 340zM74 1602q0 14 18 14h111q31 0 47 -21l60 -77l57 77q16 20 47 21h111q18 0 18 -14q0 -12 -4 -19l-70 -135q-14 -31 -55 -31h-211q-39 0 -55 31l-70 135q-4 13 -4 19z" />
<glyph unicode="&#x161;" horiz-adv-x="618" d="M10 1118q0 135 61.5 191.5t192.5 56.5h234q57 0 57 -74v-90q0 -43 -14.5 -60.5t-48.5 -17.5h-183q-49 0 -60 -38q-3 -11 -4 -23q0 -28 19 -59l219 -404q78 -143 101.5 -220t23.5 -161q0 -219 -219 -219h-305q-41 0 -54.5 16.5t-13.5 67.5v72q0 53 12.5 69.5t53.5 16.5 h211q41 0 52 33q4 12 4 24q0 22 -13 43l-232 436q-94 178 -94 340zM74 1602q0 14 18 14h111q31 0 47 -21l60 -77l57 77q16 20 47 21h111q18 0 18 -14q0 -12 -4 -19l-70 -135q-14 -31 -55 -31h-211q-39 0 -55 31l-70 135q-4 13 -4 19z" />
<glyph unicode="&#x164;" horiz-adv-x="645" d="M6 1206v70q0 53 13.5 71.5t54.5 18.5h499q37 0 51.5 -17.5t14.5 -64.5v-76q0 -49 -13.5 -66.5t-50.5 -17.5h-106q-27 0 -27 -41v-993q0 -53 -13 -71.5t-52 -18.5h-107q-41 0 -55 17.5t-14 66.5v999q0 41 -27 41h-106q-37 0 -49.5 15.5t-12.5 66.5zM92 1602q0 14 19 14 h110q31 0 47 -21l60 -77l57 77q16 20 47 21h111q18 0 18 -14q0 -12 -4 -19l-70 -135q-16 -31 -55 -31h-211q-41 0 -55 31l-70 135q-4 13 -4 19z" />
<glyph unicode="&#x165;" horiz-adv-x="645" d="M6 1206v70q0 53 13.5 71.5t54.5 18.5h499q37 0 51.5 -17.5t14.5 -64.5v-76q0 -49 -13.5 -66.5t-50.5 -17.5h-106q-27 0 -27 -41v-993q0 -53 -13 -71.5t-52 -18.5h-107q-41 0 -55 17.5t-14 66.5v999q0 41 -27 41h-106q-37 0 -49.5 15.5t-12.5 66.5zM92 1602q0 14 19 14 h110q31 0 47 -21l60 -77l57 77q16 20 47 21h111q18 0 18 -14q0 -12 -4 -19l-70 -135q-16 -31 -55 -31h-211q-41 0 -55 31l-70 135q-4 13 -4 19z" />
<glyph unicode="&#x16e;" horiz-adv-x="741" d="M41 379v897q0 51 15.5 70.5t56.5 19.5h108q37 0 49.5 -17.5t12.5 -66.5v-934q0 -57 20.5 -81.5t69.5 -24.5q47 0 66.5 25.5t19.5 82.5v932q0 51 13 67.5t52 16.5h113q39 0 51 -16.5t12 -67.5v-893q0 -94 -12 -159.5t-45 -126t-102.5 -91t-173.5 -30.5q-193 0 -259.5 95 t-66.5 302zM207 1505q0 76 46 126t117.5 50t116.5 -50t45 -128q0 -72 -46 -120t-115.5 -48t-116.5 49t-47 121zM305 1503q0 -33 18.5 -53t47 -20t47 20t18.5 51q0 33 -18.5 54.5t-47 21.5t-47 -20.5t-18.5 -53.5z" />
<glyph unicode="&#x16f;" horiz-adv-x="741" d="M41 379v897q0 51 15.5 70.5t56.5 19.5h108q37 0 49.5 -17.5t12.5 -66.5v-934q0 -57 20.5 -81.5t69.5 -24.5q47 0 66.5 25.5t19.5 82.5v932q0 51 13 67.5t52 16.5h113q39 0 51 -16.5t12 -67.5v-893q0 -94 -12 -159.5t-45 -126t-102.5 -91t-173.5 -30.5q-193 0 -259.5 95 t-66.5 302zM207 1505q0 76 46 126t117.5 50t116.5 -50t45 -128q0 -72 -46 -120t-115.5 -48t-116.5 49t-47 121zM305 1503q0 -33 18.5 -53t47 -20t47 20t18.5 51q0 33 -18.5 54.5t-47 21.5t-47 -20.5t-18.5 -53.5z" />
<glyph unicode="&#x17d;" horiz-adv-x="636" d="M16 82v154q0 70 33 141l326 710q18 37 -17 37h-256q-45 0 -56 14.5t-11 69.5v72q0 53 12 69.5t53 16.5h457q61 0 61 -80v-172q0 -41 -28 -104l-326 -719q-9 -18 -9 -29q0 -20 28 -20h272q39 0 52.5 -17.5t13.5 -70.5v-70q0 -49 -15.5 -66.5t-58.5 -17.5h-465 q-39 0 -52.5 16.5t-13.5 65.5zM92 1602q0 14 18 14h111q31 0 47 -21l60 -77l57 77q16 20 47 21h111q18 0 18 -14q0 -12 -4 -19l-70 -135q-14 -31 -55 -31h-211q-39 0 -55 31l-70 135q-4 13 -4 19z" />
<glyph unicode="&#x17e;" horiz-adv-x="636" d="M16 82v154q0 70 33 141l326 710q18 37 -17 37h-256q-45 0 -56 14.5t-11 69.5v72q0 53 12 69.5t53 16.5h457q61 0 61 -80v-172q0 -41 -28 -104l-326 -719q-9 -18 -9 -29q0 -20 28 -20h272q39 0 52.5 -17.5t13.5 -70.5v-70q0 -49 -15.5 -66.5t-58.5 -17.5h-465 q-39 0 -52.5 16.5t-13.5 65.5zM92 1602q0 14 18 14h111q31 0 47 -21l60 -77l57 77q16 20 47 21h111q18 0 18 -14q0 -12 -4 -19l-70 -135q-14 -31 -55 -31h-211q-39 0 -55 31l-70 135q-4 13 -4 19z" />
<glyph unicode="&#x2c6;" horiz-adv-x="485" d="M8 1432q0 6 4 18l70 133q16 33 55 33h211q39 0 55 -33l70 -133q4 -12 4 -18q0 -14 -18 -15h-111q-31 0 -47 21l-59 78l-58 -78q-16 -20 -47 -21h-110q-19 1 -19 15z" />
<glyph unicode="&#x2c7;" horiz-adv-x="466" d="M0 1602q0 14 18 14h111q31 0 47 -21l60 -77l57 77q16 20 47 21h111q18 0 18 -14q0 -12 -4 -19l-70 -135q-14 -31 -55 -31h-211q-39 0 -55 31l-70 135q-4 13 -4 19z" />
<glyph unicode="&#x2da;" horiz-adv-x="325" d="M0 1456q0 76 46 126t118 50t117 -50t45 -128q0 -72 -46.5 -120t-116 -48t-116.5 49t-47 121zM98 1454q0 -33 18.5 -53.5t47.5 -20.5t47 20.5t18 51.5q0 33 -18 54.5t-47 21.5t-47.5 -20.5t-18.5 -53.5z" />
<glyph unicode="&#x2dc;" horiz-adv-x="501" d="M10 1470v89q0 57 51 57h82q4 0 35 -6l146 -43q16 -6 24 -6t8 12v10q0 33 33 33h51q31 0 41.5 -11.5t10.5 -41.5v-88q0 -57 -52 -58h-82q-4 0 -34 6l-146 43q-14 6 -24 7q-8 0 -9 -13v-10q0 -33 -32 -33h-52q-31 0 -41 11t-10 42z" />
<glyph unicode="&#x2000;" horiz-adv-x="849" />
<glyph unicode="&#x2001;" horiz-adv-x="1701" />
<glyph unicode="&#x2002;" horiz-adv-x="849" />
<glyph unicode="&#x2003;" horiz-adv-x="1701" />
<glyph unicode="&#x2004;" horiz-adv-x="567" />
<glyph unicode="&#x2005;" horiz-adv-x="423" />
<glyph unicode="&#x2006;" horiz-adv-x="282" />
<glyph unicode="&#x2007;" horiz-adv-x="282" />
<glyph unicode="&#x2008;" horiz-adv-x="210" />
<glyph unicode="&#x2009;" horiz-adv-x="339" />
<glyph unicode="&#x200a;" horiz-adv-x="94" />
<glyph unicode="&#x2010;" horiz-adv-x="432" d="M20 672v102q0 51 13.5 67.5t52.5 16.5h260q39 0 52.5 -16.5t13.5 -67.5v-102q0 -51 -13.5 -67.5t-52.5 -16.5h-260q-39 0 -52.5 16.5t-13.5 67.5z" />
<glyph unicode="&#x2011;" horiz-adv-x="432" d="M20 672v102q0 51 13.5 67.5t52.5 16.5h260q39 0 52.5 -16.5t13.5 -67.5v-102q0 -51 -13.5 -67.5t-52.5 -16.5h-260q-39 0 -52.5 16.5t-13.5 67.5z" />
<glyph unicode="&#x2012;" horiz-adv-x="432" d="M20 672v102q0 51 13.5 67.5t52.5 16.5h260q39 0 52.5 -16.5t13.5 -67.5v-102q0 -51 -13.5 -67.5t-52.5 -16.5h-260q-39 0 -52.5 16.5t-13.5 67.5z" />
<glyph unicode="&#x2013;" horiz-adv-x="673" d="M20 645v121q0 53 11.5 72.5t52.5 19.5h506q41 0 52 -19.5t11 -72.5v-121q0 -53 -11 -72.5t-52 -19.5h-506q-41 0 -52.5 19.5t-11.5 72.5z" />
<glyph unicode="&#x2014;" horiz-adv-x="909" d="M23 645v121q0 53 11 72.5t52 19.5h737q41 0 52.5 -19.5t11.5 -72.5v-121q0 -53 -11.5 -72.5t-52.5 -19.5h-737q-41 0 -52 19.5t-11 72.5z" />
<glyph unicode="&#x2018;" horiz-adv-x="231" d="M8 1016v84q0 45 8 71l52 156q12 39 45 39h73q20 0 24.5 -6t-3.5 -33l-41 -117q-14 -37 10 -36h14q20 0 26.5 -14.5t6.5 -61.5v-76q0 -51 -14 -70.5t-53 -19.5h-84q-35 0 -49.5 18.5t-14.5 65.5z" />
<glyph unicode="&#x2019;" horiz-adv-x="231" d="M8 1200v76q0 51 14.5 70.5t53.5 19.5h84q35 0 49 -18.5t14 -65.5v-84q0 -45 -8 -72l-51 -155q-12 -39 -45 -39h-74q-20 0 -24.5 6t4.5 33l41 116q14 37 -11 37h-14q-20 0 -26.5 14.5t-6.5 61.5z" />
<glyph unicode="&#x201a;" horiz-adv-x="239" d="M12 76v76q0 51 15.5 70.5t52.5 19.5h84q35 0 49 -18.5t14 -65.5v-84q0 -45 -8 -72l-49 -156q-10 -39 -45 -39h-76q-20 0 -24.5 7.5t4.5 31.5l43 117q14 37 -11 37h-14q-20 0 -27.5 15.5t-7.5 60.5z" />
<glyph unicode="&#x201c;" horiz-adv-x="516" d="M12 1016v84q0 45 8 71l52 156q12 39 45 39h73q20 0 24.5 -6t-3.5 -33l-41 -117q-14 -37 10 -36h15q20 0 26 -14.5t6 -61.5v-76q0 -51 -14 -70.5t-53 -19.5h-84q-35 0 -49.5 18.5t-14.5 65.5zM289 1016v84q0 45 8 71l49 156q12 39 45 39h76q20 0 24.5 -7t-4.5 -32 l-43 -117q-14 -37 11 -36h14q20 0 27.5 -15.5t7.5 -60.5v-76q0 -51 -15.5 -70.5t-52.5 -19.5h-84q-35 0 -49 18.5t-14 65.5z" />
<glyph unicode="&#x201d;" horiz-adv-x="516" d="M12 1200v76q0 51 15.5 70.5t52.5 19.5h84q35 0 49 -18.5t14 -65.5v-84q0 -45 -8 -72l-49 -155q-10 -39 -45 -39h-76q-20 0 -24.5 7t4.5 32l43 116q14 37 -11 37h-14q-20 0 -27.5 15.5t-7.5 60.5zM289 1200v76q0 51 14 70.5t53 19.5h84q35 0 49.5 -18.5t14.5 -65.5v-84 q0 -45 -8 -72l-52 -155q-12 -39 -45 -39h-73q-20 0 -24.5 6t3.5 33l41 116q14 37 -10 37h-14q-20 0 -26.5 14.5t-6.5 61.5z" />
<glyph unicode="&#x201e;" horiz-adv-x="516" d="M12 76v76q0 51 15.5 70.5t52.5 19.5h84q35 0 49 -18.5t14 -65.5v-84q0 -45 -8 -72l-49 -156q-10 -39 -45 -39h-76q-20 0 -24.5 7.5t4.5 31.5l43 117q14 37 -11 37h-14q-20 0 -27.5 15.5t-7.5 60.5zM289 76v76q0 51 14 70.5t53 19.5h84q35 0 49.5 -18.5t14.5 -65.5v-84 q0 -47 -8 -72l-52 -156q-12 -39 -45 -39h-73q-20 0 -24.5 6.5t3.5 32.5l41 117q14 37 -10 37h-14q-20 0 -26.5 14.5t-6.5 61.5z" />
<glyph unicode="&#x2022;" horiz-adv-x="387" d="M20 635v194q0 72 18.5 94.5t78.5 22.5h153q59 0 78 -22.5t19 -94.5v-194q0 -72 -18.5 -94.5t-78.5 -22.5h-153q-59 0 -78 22.5t-19 94.5z" />
<glyph unicode="&#x2026;" horiz-adv-x="899" d="M35 92v58q0 53 11 72.5t52 19.5h115q41 0 52 -19.5t11 -72.5v-58q0 -53 -11 -72.5t-52 -19.5h-115q-41 0 -52 19.5t-11 72.5zM328 92v58q0 53 11 72.5t52 19.5h115q41 0 52 -19.5t11 -72.5v-58q0 -53 -11 -72.5t-52 -19.5h-115q-41 0 -52 19.5t-11 72.5zM621 92v58 q0 53 11 72.5t52 19.5h115q41 0 52 -19.5t11 -72.5v-58q0 -53 -11 -72.5t-52 -19.5h-115q-41 0 -52 19.5t-11 72.5z" />
<glyph unicode="&#x202f;" horiz-adv-x="339" />
<glyph unicode="&#x2039;" horiz-adv-x="204" d="M10 524v264q0 59 27 78l125 92q33 25 33 -18v-137q0 -37 -15 -58l-65 -94l59 -84q20 -31 21 -53v-145q0 -33 -27 -21l-125 90q-33 25 -33 86z" />
<glyph unicode="&#x203a;" horiz-adv-x="204" d="M10 369v145q0 23 21 53l59 84l-65 94q-14 20 -15 58v137q0 43 33 18l125 -92q27 -18 27 -78v-264q0 -61 -33 -86l-125 -90q-27 -12 -27 21z" />
<glyph unicode="&#x205f;" horiz-adv-x="423" />
<glyph unicode="&#x2122;" horiz-adv-x="618" d="M10 1288v78h209v-78h-72v-352h-67v352h-70zM270 934l33 432h82l57 -301q4 29 58 301h82l26 -432h-61l-17 307l-61 -307h-61l-58 303l-16 -303h-64z" />
<glyph unicode="&#xe000;" horiz-adv-x="1365" d="M0 1365h1365v-1365h-1365v1365z" />
</font>
</defs>
</svg>
